<svg width="20" height="20" viewBox="0 0 20 20" fill="none" xmlns="http://www.w3.org/2000/svg">
<path fill-rule="evenodd" clip-rule="evenodd" d="M7.29321 5.29279C7.10574 5.48031 7.00043 5.73462 7.00043 5.99979C7.00043 6.26495 7.10574 6.51926 7.29321 6.70679L10.5862 9.99979L7.29321 13.2928C7.11106 13.4814 7.01026 13.734 7.01254 13.9962C7.01482 14.2584 7.11999 14.5092 7.3054 14.6946C7.4908 14.88 7.74162 14.9852 8.00381 14.9875C8.26601 14.9897 8.51861 14.8889 8.70721 14.7068L12.7072 10.7068C12.8947 10.5193 13 10.265 13 9.99979C13 9.73462 12.8947 9.48031 12.7072 9.29279L8.70721 5.29279C8.51969 5.10532 8.26538 5 8.00021 5C7.73505 5 7.48074 5.10532 7.29321 5.29279Z" fill="#0E0D35"/>
</svg>
