<svg width="16" height="16" viewBox="0 0 16 16" fill="none" xmlns="http://www.w3.org/2000/svg">
<path d="M11.6528 6.19769C11.5254 6.07107 11.3531 6 11.1735 6C9.33676 6 7.29059 6 5.36787 6C5.18827 6 5.01596 6.07107 4.88859 6.19769C4.82487 6.26089 4.7743 6.33607 4.73978 6.41892C4.70527 6.50176 4.6875 6.59062 4.6875 6.68036C4.6875 6.77011 4.70527 6.85896 4.73978 6.94181C4.7743 7.02465 4.82487 7.09984 4.88859 7.16304L7.77104 10.0455C7.83424 10.1092 7.90942 10.1598 7.99227 10.1943C8.07511 10.2288 8.16397 10.2466 8.25371 10.2466C8.34346 10.2466 8.43231 10.2288 8.51515 10.1943C8.598 10.1598 8.67319 10.1092 8.73638 10.0455L11.6528 7.16304C11.7165 7.09984 11.7671 7.02465 11.8016 6.94181C11.8361 6.85896 11.8539 6.77011 11.8539 6.68036C11.8539 6.59062 11.8361 6.50176 11.8016 6.41892C11.7671 6.33607 11.7165 6.26089 11.6528 6.19769Z" fill="#0E0D35"/>
</svg>
