<svg width="12" height="12" viewBox="0 0 12 12" fill="none" xmlns="http://www.w3.org/2000/svg">
<path d="M9.65282 4.19769C9.52545 4.07107 9.35315 4 9.17355 4C7.33676 4 5.29059 4 3.36787 4C3.18827 4 3.01596 4.07107 2.88859 4.19769C2.82487 4.26089 2.7743 4.33607 2.73978 4.41892C2.70527 4.50176 2.6875 4.59062 2.6875 4.68036C2.6875 4.77011 2.70527 4.85896 2.73978 4.94181C2.7743 5.02465 2.82487 5.09984 2.88859 5.16304L5.77104 8.04548C5.83424 8.1092 5.90942 8.15978 5.99227 8.19429C6.07511 8.2288 6.16397 8.24657 6.25371 8.24657C6.34346 8.24657 6.43231 8.2288 6.51515 8.19429C6.598 8.15978 6.67319 8.1092 6.73638 8.04548L9.65282 5.16304C9.71654 5.09984 9.76712 5.02465 9.80163 4.94181C9.83614 4.85896 9.85391 4.77011 9.85391 4.68036C9.85391 4.59062 9.83614 4.50176 9.80163 4.41892C9.76712 4.33607 9.71654 4.26089 9.65282 4.19769Z" fill="#0E0D35"/>
</svg>
