<svg width="16" height="16" viewBox="0 0 16 16" fill="none" xmlns="http://www.w3.org/2000/svg">
<path d="M13.7127 5.30227C13.5179 5.10867 13.2545 5 12.9799 5C10.1714 5 7.04271 5 4.1028 5C3.82819 5 3.56473 5.10867 3.36997 5.30227C3.27255 5.3989 3.19521 5.51387 3.14244 5.64054C3.08967 5.76721 3.0625 5.90307 3.0625 6.04029C3.0625 6.17752 3.08967 6.31338 3.14244 6.44005C3.19521 6.56672 3.27255 6.68169 3.36997 6.77832L7.77733 11.1857C7.87396 11.2831 7.98892 11.3604 8.11559 11.4132C8.24226 11.466 8.37813 11.4931 8.51535 11.4931C8.65257 11.4931 8.78844 11.466 8.91511 11.4132C9.04178 11.3604 9.15674 11.2831 9.25337 11.1857L13.7127 6.77832C13.8101 6.68169 13.8875 6.56672 13.9402 6.44005C13.993 6.31338 14.0202 6.17752 14.0202 6.04029C14.0202 5.90307 13.993 5.76721 13.9402 5.64054C13.8875 5.51387 13.8101 5.3989 13.7127 5.30227Z" fill="#3E3D5D"/>
</svg>
