<svg width="32" height="32" viewBox="0 0 32 32" fill="none" xmlns="http://www.w3.org/2000/svg">
<path d="M9.46005 22.49V19.57C9.46005 18.6 10.22 17.73 11.3 17.73C12.27 17.73 13.14 18.49 13.14 19.57V22.38C13.14 24.33 11.52 25.9501 9.57005 25.9501C7.62005 25.9501 6.00005 24.32 6.00005 22.38V16.22C5.89005 10.6 10.33 6.05005 15.95 6.05005C21.57 6.05005 26 10.6 26 16.11V22.2701C26 24.2201 24.38 25.84 22.43 25.84C20.48 25.84 18.86 24.2201 18.86 22.2701V19.46C18.86 18.49 19.62 17.62 20.7 17.62C21.67 17.62 22.54 18.38 22.54 19.46V22.49" stroke="#0E0D35" stroke-width="2" stroke-linecap="round" stroke-linejoin="round"/>
</svg>
