<svg width="96" height="16" viewBox="0 0 96 16" fill="none" xmlns="http://www.w3.org/2000/svg">
<path d="M13.7568 5.20893L11.7298 4.90249C11.0721 4.80306 10.5068 4.38316 10.2217 3.78219L9.30076 1.84082C8.76912 0.719941 7.23117 0.719524 6.69927 1.84078L5.77828 3.78218C5.49318 4.38315 4.92795 4.80306 4.27025 4.90249L2.24319 5.20893C1.05424 5.38863 0.578698 6.91011 1.4393 7.78292L2.95242 9.31736C3.40161 9.77287 3.60578 10.4158 3.50172 11.047L3.14139 13.2326C2.93827 14.4645 4.18208 15.4052 5.24605 14.8235L7.04026 13.8421C7.63829 13.515 8.36174 13.515 8.95977 13.8421L10.7541 14.8235C11.8193 15.406 13.0613 14.4617 12.8586 13.2326L12.4983 11.047C12.3942 10.4158 12.5984 9.77287 13.0476 9.31736L14.5607 7.78292C15.421 6.91041 14.9463 5.38874 13.7568 5.20893Z" fill="url(#paint0_linear_7110_539673)"/>
<path d="M33.7568 5.20893L31.7298 4.90249C31.0721 4.80306 30.5068 4.38316 30.2217 3.78219L29.3008 1.84082C28.7691 0.719941 27.2312 0.719524 26.6993 1.84078L25.7783 3.78218C25.4932 4.38315 24.928 4.80306 24.2703 4.90249L22.2432 5.20893C21.0542 5.38863 20.5787 6.91011 21.4393 7.78292L22.9524 9.31736C23.4016 9.77287 23.6058 10.4158 23.5017 11.047L23.1414 13.2326C22.9383 14.4645 24.1821 15.4052 25.2461 14.8235L27.0403 13.8421C27.6383 13.515 28.3617 13.515 28.9598 13.8421L30.7541 14.8235C31.8193 15.406 33.0613 14.4617 32.8586 13.2326L32.4983 11.047C32.3942 10.4158 32.5984 9.77287 33.0476 9.31736L34.5607 7.78292C35.421 6.91041 34.9463 5.38874 33.7568 5.20893Z" fill="url(#paint1_linear_7110_539673)"/>
<path d="M53.7568 5.20893L51.7298 4.90249C51.0721 4.80306 50.5068 4.38316 50.2217 3.78219L49.3008 1.84082C48.7691 0.719941 47.2312 0.719524 46.6993 1.84078L45.7783 3.78218C45.4932 4.38315 44.928 4.80306 44.2703 4.90249L42.2432 5.20893C41.0542 5.38863 40.5787 6.91011 41.4393 7.78292L42.9524 9.31736C43.4016 9.77287 43.6058 10.4158 43.5017 11.047L43.1414 13.2326C42.9383 14.4645 44.1821 15.4052 45.2461 14.8235L47.0403 13.8421C47.6383 13.515 48.3617 13.515 48.9598 13.8421L50.7541 14.8235C51.8193 15.406 53.0613 14.4617 52.8586 13.2326L52.4983 11.047C52.3942 10.4158 52.5984 9.77287 53.0476 9.31736L54.5607 7.78292C55.421 6.91041 54.9463 5.38874 53.7568 5.20893Z" fill="url(#paint2_linear_7110_539673)"/>
<path d="M73.7568 5.20893L71.7298 4.90249C71.0721 4.80306 70.5068 4.38316 70.2217 3.78219L69.3008 1.84082C68.7691 0.719941 67.2312 0.719524 66.6993 1.84078L65.7783 3.78218C65.4932 4.38315 64.928 4.80306 64.2703 4.90249L62.2432 5.20893C61.0542 5.38863 60.5787 6.91011 61.4393 7.78292L62.9524 9.31736C63.4016 9.77287 63.6058 10.4158 63.5017 11.047L63.1414 13.2326C62.9383 14.4645 64.1821 15.4052 65.2461 14.8235L67.0403 13.8421C67.6383 13.515 68.3617 13.515 68.9598 13.8421L70.7541 14.8235C71.8193 15.406 73.0613 14.4617 72.8586 13.2326L72.4983 11.047C72.3942 10.4158 72.5984 9.77287 73.0476 9.31736L74.5607 7.78292C75.421 6.91041 74.9463 5.38874 73.7568 5.20893Z" fill="url(#paint3_linear_7110_539673)"/>
<path d="M93.7568 5.20893L91.7298 4.90249C91.0721 4.80306 90.5068 4.38316 90.2217 3.78219L89.3008 1.84082C88.7691 0.719941 87.2312 0.719524 86.6993 1.84078L85.7783 3.78218C85.4932 4.38315 84.928 4.80306 84.2703 4.90249L82.2432 5.20893C81.0542 5.38863 80.5787 6.91011 81.4393 7.78292L82.9524 9.31736C83.4016 9.77287 83.6058 10.4158 83.5017 11.047L83.1414 13.2326C82.9383 14.4645 84.1821 15.4052 85.2461 14.8235L87.0403 13.8421C87.6383 13.515 88.3617 13.515 88.9598 13.8421L90.7541 14.8235C91.8193 15.406 93.0613 14.4617 92.8586 13.2326L92.4983 11.047C92.3942 10.4158 92.5984 9.77287 93.0476 9.31736L94.5607 7.78292C95.421 6.91041 94.9463 5.38874 93.7568 5.20893Z" fill="#E7E7EB"/>
<defs>
<linearGradient id="paint0_linear_7110_539673" x1="1.3211" y1="0.999992" x2="16.1925" y2="2.97832" gradientUnits="userSpaceOnUse">
<stop stop-color="#FB9600"/>
<stop offset="1" stop-color="#FFC701"/>
</linearGradient>
<linearGradient id="paint1_linear_7110_539673" x1="21.3211" y1="0.999992" x2="36.1925" y2="2.97832" gradientUnits="userSpaceOnUse">
<stop stop-color="#FB9600"/>
<stop offset="1" stop-color="#FFC701"/>
</linearGradient>
<linearGradient id="paint2_linear_7110_539673" x1="41.3211" y1="0.999992" x2="56.1925" y2="2.97832" gradientUnits="userSpaceOnUse">
<stop stop-color="#FB9600"/>
<stop offset="1" stop-color="#FFC701"/>
</linearGradient>
<linearGradient id="paint3_linear_7110_539673" x1="61.3211" y1="0.999992" x2="76.1925" y2="2.97832" gradientUnits="userSpaceOnUse">
<stop stop-color="#FB9600"/>
<stop offset="1" stop-color="#FFC701"/>
</linearGradient>
</defs>
</svg>
