<svg width="118" height="118" viewBox="0 0 118 118" fill="none" xmlns="http://www.w3.org/2000/svg">
<path d="M59 13C67.2996 13 75.4447 15.2455 82.5718 19.4985C89.6989 23.7515 95.5426 29.8535 99.4836 37.1578C103.424 44.4621 105.316 52.6966 104.957 60.9885C104.598 69.2804 102.003 77.3207 97.4456 84.2574C92.8885 91.194 86.5396 96.7684 79.0717 100.39C71.6039 104.011 63.2953 105.545 55.0267 104.828C46.7581 104.111 38.8375 101.171 32.1043 96.3178C25.3712 91.4651 20.0764 84.8812 16.7811 77.2637" stroke="#5B93FF" stroke-width="26"/>
<path d="M23.3425 29.9389C27.546 24.7814 32.8182 20.5971 38.7956 17.6747C44.773 14.7523 51.3132 13.1613 57.965 13.0116" stroke="#CFDFFE" stroke-width="26"/>
<path d="M16.2696 76.0326C13.3384 68.6791 12.3545 60.6935 13.4132 52.8484C14.4718 45.0034 17.5371 37.5642 22.3125 31.2506" stroke="#99BCFF" stroke-width="26"/>
</svg>
