<svg width="245" height="124" viewBox="0 0 245 124" fill="none" xmlns="http://www.w3.org/2000/svg">
<path d="M227.363 123.683H245V52.9981H174.439C171.799 46.5082 168.039 40.5328 163.331 35.3444C161.221 32.9769 158.968 30.7415 156.583 28.6507C151.816 24.4924 146.645 20.8208 141.147 17.6907C140.411 17.2793 139.65 16.8679 138.893 16.4565C133.21 13.3902 127.295 10.7764 121.202 8.63966C115.434 6.56475 109.539 4.86347 103.552 3.54638C97.7303 2.30183 91.8415 1.39248 85.9152 0.82283C80.4882 0.273127 75.0369 -0.00149945 69.5821 6.15701e-06H0C18.5135 13.3791 24.5202 17.6414 68.1751 17.6414C74.0924 17.6336 80.0032 18.0322 85.8658 18.8344C91.8482 19.6471 97.7616 20.9054 103.557 22.5989C109.637 24.3555 115.556 26.6307 121.247 29.3995C124.908 31.177 128.459 33.1747 131.878 35.3814C139.372 40.1409 146.031 46.1009 151.589 53.0228C153.441 55.3835 155.12 57.8749 156.612 60.4776C158.505 63.7192 160.079 67.1361 161.315 70.6806H227.363V123.683Z" fill="#EBEBEB"/>
<path d="M119.723 123.67H209.654L209.613 105.979H119.752C115.304 105.982 110.9 105.108 106.789 103.408C102.679 101.708 98.9445 99.215 95.7982 96.071C92.652 92.927 90.156 89.194 88.4529 85.0851C86.7498 80.9763 85.8729 76.5721 85.8724 72.1243V53.006H68.1816V72.186C68.1843 78.9511 69.5198 85.6494 72.1116 91.8982C74.7035 98.1471 78.5011 103.824 83.2874 108.605C88.0737 113.386 93.755 117.177 100.007 119.762C106.259 122.347 112.958 123.675 119.723 123.67Z" fill="#EBEBEB"/>
</svg>
