<svg width="20" height="20" viewBox="0 0 20 20" fill="none" xmlns="http://www.w3.org/2000/svg">
<path d="M10.7074 2.29279C10.5199 2.10532 10.2656 2 10.0004 2C9.73524 2 9.48094 2.10532 9.29341 2.29279L2.29341 9.29279C2.11125 9.48139 2.01045 9.73399 2.01273 9.99619C2.01501 10.2584 2.12018 10.5092 2.30559 10.6946C2.491 10.88 2.74181 10.9852 3.00401 10.9875C3.2662 10.9897 3.5188 10.8889 3.70741 10.7068L4.00041 10.4138V16.9998C4.00041 17.265 4.10576 17.5194 4.2933 17.7069C4.48084 17.8944 4.73519 17.9998 5.00041 17.9998H7.00041C7.26562 17.9998 7.51998 17.8944 7.70751 17.7069C7.89505 17.5194 8.00041 17.265 8.00041 16.9998V14.9998C8.00041 14.7346 8.10576 14.4802 8.2933 14.2927C8.48084 14.1051 8.73519 13.9998 9.00041 13.9998H11.0004C11.2656 13.9998 11.52 14.1051 11.7075 14.2927C11.8951 14.4802 12.0004 14.7346 12.0004 14.9998V16.9998C12.0004 17.265 12.1058 17.5194 12.2933 17.7069C12.4808 17.8944 12.7352 17.9998 13.0004 17.9998H15.0004C15.2656 17.9998 15.52 17.8944 15.7075 17.7069C15.8951 17.5194 16.0004 17.265 16.0004 16.9998V10.4138L16.2934 10.7068C16.482 10.8889 16.7346 10.9897 16.9968 10.9875C17.259 10.9852 17.5098 10.88 17.6952 10.6946C17.8806 10.5092 17.9858 10.2584 17.9881 9.99619C17.9904 9.73399 17.8896 9.48139 17.7074 9.29279L10.7074 2.29279Z" fill="#0E0D35"/>
</svg>
