<svg width="32" height="32" viewBox="0 0 32 32" fill="none" xmlns="http://www.w3.org/2000/svg">
<path d="M16 19C17.6569 19 19 17.6569 19 16C19 14.3431 17.6569 13 16 13C14.3431 13 13 14.3431 13 16C13 17.6569 14.3431 19 16 19Z" stroke="#0E0D35" stroke-width="1.81579" stroke-miterlimit="10" stroke-linecap="round" stroke-linejoin="round"/>
<path d="M6 16.8801V15.1201C6 14.0801 6.85 13.2201 7.9 13.2201C9.71 13.2201 10.45 11.9401 9.54 10.3701C9.02 9.47006 9.33 8.30006 10.24 7.78006L11.97 6.79006C12.76 6.32006 13.78 6.60006 14.25 7.39006L14.36 7.58006C15.26 9.15006 16.74 9.15006 17.65 7.58006L17.76 7.39006C18.23 6.60006 19.25 6.32006 20.04 6.79006L21.77 7.78006C22.68 8.30006 22.99 9.47006 22.47 10.3701C21.56 11.9401 22.3 13.2201 24.11 13.2201C25.15 13.2201 26.01 14.0701 26.01 15.1201V16.8801C26.01 17.9201 25.16 18.7801 24.11 18.7801C22.3 18.7801 21.56 20.0601 22.47 21.6301C22.99 22.5401 22.68 23.7001 21.77 24.2201L20.04 25.2101C19.25 25.6801 18.23 25.4001 17.76 24.6101L17.65 24.4201C16.75 22.8501 15.27 22.8501 14.36 24.4201L14.25 24.6101C13.78 25.4001 12.76 25.6801 11.97 25.2101L10.24 24.2201C9.33 23.7001 9.02 22.5301 9.54 21.6301C10.45 20.0601 9.71 18.7801 7.9 18.7801C6.85 18.7801 6 17.9201 6 16.8801Z" stroke="#0E0D35" stroke-width="2" stroke-miterlimit="10" stroke-linecap="round" stroke-linejoin="round"/>
</svg>
