<svg width="32" height="32" viewBox="0 0 32 32" fill="none" xmlns="http://www.w3.org/2000/svg">
<path d="M22.6238 15.125H22C21.7679 15.125 21.5454 15.2172 21.3813 15.3813C21.2172 15.5454 21.125 15.7679 21.125 16V24.25C21.125 24.4821 21.2172 24.7046 21.3813 24.8687C21.5454 25.0328 21.7679 25.125 22 25.125H23.2525C24.1469 25.125 25.0048 24.7697 25.6372 24.1372C26.2697 23.5048 26.625 22.6469 26.625 21.7525L26.625 18.4975L26.625 18.4969C26.6216 17.7863 26.3939 17.095 25.9742 16.5215C25.5727 15.9727 25.015 15.5587 24.375 15.3328V15.25C24.375 13.0288 23.4926 10.8986 21.922 9.32798C20.3514 7.75736 18.2212 6.875 16 6.875C13.7788 6.875 11.6486 7.75736 10.078 9.32798C8.50736 10.8986 7.625 13.0288 7.625 15.25V15.3328C6.98503 15.5587 6.42734 15.9727 6.02575 16.5215C5.60615 17.095 5.3784 17.7863 5.375 18.4969V18.4975V21.7525C5.375 22.6469 5.73032 23.5048 6.36278 24.1372C6.99525 24.7697 7.85306 25.125 8.7475 25.125H10C10.2321 25.125 10.4546 25.0328 10.6187 24.8687C10.7828 24.7046 10.875 24.4821 10.875 24.25V16C10.875 15.7679 10.7828 15.5454 10.6187 15.3813C10.4546 15.2172 10.2321 15.125 10 15.125H9.37618C9.40844 13.4132 10.1025 11.7784 11.3154 10.5654C12.5578 9.32299 14.2429 8.625 16 8.625C17.7571 8.625 19.4422 9.32299 20.6846 10.5654C21.8975 11.7784 22.5916 13.4132 22.6238 15.125ZM9.125 23.375L8.74803 23.375C8.74789 23.375 8.74774 23.375 8.7476 23.375C8.31787 23.3731 7.90628 23.2015 7.6024 22.8976C7.29848 22.5937 7.12691 22.182 7.125 21.7522V18.4978C7.12691 18.068 7.29848 17.6563 7.6024 17.3524C7.90633 17.0485 8.318 16.8769 8.74781 16.875C8.74789 16.875 8.74796 16.875 8.74803 16.875L9.125 16.875V23.375ZM24.875 21.7524C24.8731 22.1821 24.7015 22.5937 24.3976 22.8976C24.0937 23.2015 23.6821 23.3731 23.2524 23.375C23.2523 23.375 23.2521 23.375 23.252 23.375L22.875 23.375V16.875L23.252 16.875C23.252 16.875 23.2521 16.875 23.2522 16.875C23.682 16.8769 24.0937 17.0485 24.3976 17.3524C24.7015 17.6563 24.8731 18.0679 24.875 18.4976C24.875 18.4977 24.875 18.4979 24.875 18.498V21.752C24.875 21.7521 24.875 21.7523 24.875 21.7524Z" fill="#0E0D35" stroke="#0E0D35" stroke-width="0.25"/>
</svg>
