<svg width="32" height="32" viewBox="0 0 32 32" fill="none" xmlns="http://www.w3.org/2000/svg">
<path d="M18.1299 23.5555C17.8464 24.948 16.6119 25.9999 15.1362 25.9999C13.6607 25.9999 12.4262 24.948 12.1426 23.5555V22.6665H18.1299V23.5555Z" stroke="#0E0D35" stroke-width="2"/>
<path d="M20.8494 15.9992C20.8975 17.5407 21.5827 19.0001 22.7675 19.9933C23.1757 20.3363 23.3631 20.8619 23.2539 21.3883C23.113 22.0686 22.4587 22.5185 21.7644 22.5185H8.50336C7.84167 22.5185 7.21101 22.111 7.03824 21.473C6.88994 20.9246 7.0733 20.3624 7.48643 20.0096C8.72581 18.9618 9.43226 17.4397 9.43226 15.8271V13.5555C9.43226 10.4053 11.9859 7.85181 15.1359 7.85181C15.32 7.85181 15.5017 7.8624 15.6811 7.87941" stroke="#0E0D35" stroke-width="2" stroke-linecap="round" stroke-linejoin="round"/>
<path d="M24.9137 10.2963C24.9137 12.5463 23.0898 14.3703 20.8396 14.3703C18.5896 14.3703 16.7656 12.5463 16.7656 10.2963C16.7656 8.04625 18.5896 6.22217 20.8396 6.22217C23.0898 6.22217 24.9137 8.04625 24.9137 10.2963Z" fill="#FF5555"/>
</svg>
