<svg width="22" height="23" viewBox="0 0 22 23" fill="none" xmlns="http://www.w3.org/2000/svg">
<path d="M18.7849 7.91972L16.0169 7.50128C15.1188 7.36551 14.347 6.79212 13.9577 5.97149L12.7001 3.32052C11.9741 1.78994 9.874 1.78937 9.14769 3.32047L7.89006 5.97148C7.50075 6.79212 6.72892 7.36551 5.83082 7.50128L3.06283 7.91972C1.4393 8.16511 0.789939 10.2427 1.96511 11.4346L4.0313 13.5299C4.64467 14.1519 4.92347 15.0298 4.78137 15.8917L4.28933 18.8762C4.01198 20.5583 5.71042 21.843 7.16329 21.0486L9.61332 19.7085C10.4299 19.2618 11.4178 19.2618 12.2344 19.7085L14.6846 21.0486C16.1391 21.844 17.8352 20.5546 17.5584 18.8762L17.0663 15.8917C16.9242 15.0298 17.203 14.1519 17.8164 13.5299L19.8826 11.4346C21.0574 10.2431 20.4091 8.16527 18.7849 7.91972Z" fill="url(#paint0_linear_7110_872)"/>
<defs>
<linearGradient id="paint0_linear_7110_872" x1="1.8037" y1="2.17235" x2="22.1109" y2="4.8738" gradientUnits="userSpaceOnUse">
<stop stop-color="#FB9600"/>
<stop offset="1" stop-color="#FFC701"/>
</linearGradient>
</defs>
</svg>
