<svg width="23" height="23" viewBox="0 0 23 23" fill="none" xmlns="http://www.w3.org/2000/svg">
<path d="M19.0955 7.91972L16.3275 7.50128C15.4294 7.36551 14.6575 6.79212 14.2682 5.97149L13.0106 3.32052C12.2846 1.78994 10.1846 1.78937 9.45824 3.32047L8.20061 5.97148C7.8113 6.79212 7.03947 7.36551 6.14137 7.50128L3.37338 7.91972C1.74985 8.16511 1.10049 10.2427 2.27566 11.4346L4.34185 13.5299C4.95522 14.1519 5.23402 15.0298 5.09192 15.8917L4.59988 18.8762C4.32253 20.5583 6.02097 21.843 7.47384 21.0486L9.92387 19.7085C10.7405 19.2618 11.7284 19.2618 12.545 19.7085L14.9951 21.0486C16.4497 21.844 18.1457 20.5546 17.8689 18.8762L17.3769 15.8917C17.2348 15.0298 17.5136 14.1519 18.127 13.5299L20.1932 11.4346C21.3679 10.2431 20.7196 8.16527 19.0955 7.91972Z" fill="url(#paint0_linear_7110_874)"/>
<defs>
<linearGradient id="paint0_linear_7110_874" x1="2.11425" y1="2.17235" x2="22.4214" y2="4.8738" gradientUnits="userSpaceOnUse">
<stop stop-color="#FB9600"/>
<stop offset="1" stop-color="#FFC701"/>
</linearGradient>
</defs>
</svg>
