<svg width="23" height="23" viewBox="0 0 23 23" fill="none" xmlns="http://www.w3.org/2000/svg">
<path d="M19.0261 7.91972L16.2581 7.50128C15.36 7.36551 14.5882 6.79212 14.1989 5.97149L12.9413 3.32052C12.2153 1.78994 10.1152 1.78937 9.3889 3.32047L8.13127 5.97148C7.74196 6.79212 6.97013 7.36551 6.07203 7.50128L3.30404 7.91972C1.68051 8.16511 1.03115 10.2427 2.20632 11.4346L4.27252 13.5299C4.88588 14.1519 5.16468 15.0298 5.02258 15.8917L4.53055 18.8762C4.25319 20.5583 5.95163 21.843 7.4045 21.0486L9.85453 19.7085C10.6711 19.2618 11.659 19.2618 12.4757 19.7085L14.9258 21.0486C16.3803 21.844 18.0764 20.5546 17.7996 18.8762L17.3075 15.8917C17.1654 15.0298 17.4443 14.1519 18.0576 13.5299L20.1239 11.4346C21.2986 10.2431 20.6503 8.16527 19.0261 7.91972Z" fill="#E7E7EB"/>
</svg>
