<svg width="23" height="23" viewBox="0 0 23 23" fill="none" xmlns="http://www.w3.org/2000/svg">
<path d="M19.406 7.91972L16.638 7.50128C15.7399 7.36551 14.9681 6.79212 14.5788 5.97149L13.3212 3.32052C12.5952 1.78994 10.4951 1.78937 9.76879 3.32047L8.51115 5.97148C8.12184 6.79212 7.35001 7.36551 6.45192 7.50128L3.68393 7.91972C2.0604 8.16511 1.41103 10.2427 2.5862 11.4346L4.6524 13.5299C5.26576 14.1519 5.54457 15.0298 5.40247 15.8917L4.91043 18.8762C4.63307 20.5583 6.33152 21.843 7.78439 21.0486L10.2344 19.7085C11.051 19.2618 12.0389 19.2618 12.8555 19.7085L15.3057 21.0486C16.7602 21.844 18.4563 20.5546 18.1795 18.8762L17.6874 15.8917C17.5453 15.0298 17.8241 14.1519 18.4375 13.5299L20.5037 11.4346C21.6785 10.2431 21.0302 8.16527 19.406 7.91972Z" fill="url(#paint0_linear_7110_876)"/>
<defs>
<linearGradient id="paint0_linear_7110_876" x1="2.4248" y1="2.17235" x2="22.732" y2="4.8738" gradientUnits="userSpaceOnUse">
<stop stop-color="#FB9600"/>
<stop offset="1" stop-color="#FFC701"/>
</linearGradient>
</defs>
</svg>
