<svg width="23" height="23" viewBox="0 0 23 23" fill="none" xmlns="http://www.w3.org/2000/svg">
<path d="M19.7156 7.91972L16.9476 7.50128C16.0495 7.36551 15.2777 6.79212 14.8884 5.97149L13.6307 3.32052C12.9048 1.78994 10.8047 1.78937 10.0784 3.32047L8.82072 5.97148C8.43141 6.79212 7.65958 7.36551 6.76149 7.50128L3.9935 7.91972C2.36997 8.16511 1.7206 10.2427 2.89577 11.4346L4.96197 13.5299C5.57534 14.1519 5.85414 15.0298 5.71204 15.8917L5.22 18.8762C4.94265 20.5583 6.64109 21.843 8.09396 21.0486L10.544 19.7085C11.3606 19.2618 12.3485 19.2618 13.1651 19.7085L15.6152 21.0486C17.0698 21.844 18.7658 20.5546 18.489 18.8762L17.997 15.8917C17.8549 15.0298 18.1337 14.1519 18.7471 13.5299L20.8133 11.4346C21.988 10.2431 21.3398 8.16527 19.7156 7.91972Z" fill="url(#paint0_linear_7110_878)"/>
<defs>
<linearGradient id="paint0_linear_7110_878" x1="2.73437" y1="2.17235" x2="23.0415" y2="4.8738" gradientUnits="userSpaceOnUse">
<stop stop-color="#FB9600"/>
<stop offset="1" stop-color="#FFC701"/>
</linearGradient>
</defs>
</svg>
