<svg width="24" height="24" viewBox="0 0 24 24" fill="none" xmlns="http://www.w3.org/2000/svg">
<path d="M12.5007 22.0001H4.0807C2.9207 22.0001 1.9707 21.0701 1.9707 19.9301V5.09011C1.9707 2.47011 3.9207 1.2801 6.3107 2.4501L10.7507 4.63011C11.7107 5.10011 12.5007 6.3501 12.5007 7.4101V22.0001Z" stroke="#27264A" stroke-width="1.5" stroke-linecap="round" stroke-linejoin="round"/>
<path d="M21.97 15.0602V18.8402C21.97 21.0002 20.97 22.0002 18.81 22.0002H12.5V10.4202L12.97 10.5202L17.47 11.5302L19.5 11.9802C20.82 12.2702 21.9 12.9502 21.96 14.8702C21.97 14.9302 21.97 14.9902 21.97 15.0602Z" stroke="#27264A" stroke-width="1.5" stroke-linecap="round" stroke-linejoin="round"/>
<path d="M5.5 9.00012H8.97" stroke="#27264A" stroke-width="1.5" stroke-linecap="round" stroke-linejoin="round"/>
<path d="M5.5 13.0001H8.97" stroke="#27264A" stroke-width="1.5" stroke-linecap="round" stroke-linejoin="round"/>
<path d="M17.4707 11.5301V14.7501C17.4707 15.9901 16.4607 17.0001 15.2207 17.0001C13.9807 17.0001 12.9707 15.9901 12.9707 14.7501V10.5201L17.4707 11.5301Z" stroke="#292D32" stroke-width="1.5" stroke-linecap="round" stroke-linejoin="round"/>
<path d="M21.9607 14.8702C21.9007 16.0502 20.9207 17.0002 19.7207 17.0002C18.4807 17.0002 17.4707 15.9902 17.4707 14.7502V11.5302L19.5007 11.9802C20.8207 12.2702 21.9007 12.9502 21.9607 14.8702Z" stroke="#292D32" stroke-width="1.5" stroke-linecap="round" stroke-linejoin="round"/>
</svg>
