<svg width="24" height="24" viewBox="0 0 24 24" fill="none" xmlns="http://www.w3.org/2000/svg">
<path d="M12.0191 2C8.3391 2 5.35909 4.98 5.35909 8.66V10.76C5.35909 11.44 5.07909 12.46 4.72909 13.04L3.45909 15.16C1.66372 18.1753 6.83812 17.7208 12.0191 17.746C17.2282 17.7713 22.4439 18.2598 20.5891 15.16L19.3191 13.04C18.9691 12.46 18.6891 11.43 18.6891 10.76V8.66C18.6791 5 15.6791 2 12.0191 2Z" stroke="#27264A" stroke-width="1.5" stroke-miterlimit="10" stroke-linecap="round"/>
<path d="M15.3299 17.8203C15.3299 19.6503 13.8299 21.1503 11.9999 21.1503C11.0899 21.1503 10.2499 20.7703 9.64992 20.1703C9.04992 19.5703 8.66992 18.7303 8.66992 17.8203" stroke="#27264A" stroke-width="1.5" stroke-miterlimit="10"/>
</svg>
