<svg width="16" height="16" viewBox="0 0 16 16" fill="none" xmlns="http://www.w3.org/2000/svg">
<path d="M5.99967 14.6663H9.99967C13.333 14.6663 14.6663 13.333 14.6663 9.99967V5.99967C14.6663 2.66634 13.333 1.33301 9.99967 1.33301H5.99967C2.66634 1.33301 1.33301 2.66634 1.33301 5.99967V9.99967C1.33301 13.333 2.66634 14.6663 5.99967 14.6663Z" stroke="#5825EB" stroke-linecap="round" stroke-linejoin="round"/>
<path d="M10.333 6.5C10.8853 6.5 11.333 6.05228 11.333 5.5C11.333 4.94772 10.8853 4.5 10.333 4.5C9.78072 4.5 9.33301 4.94772 9.33301 5.5C9.33301 6.05228 9.78072 6.5 10.333 6.5Z" stroke="#5825EB" stroke-miterlimit="10" stroke-linecap="round" stroke-linejoin="round"/>
<path d="M5.66699 6.5C6.21928 6.5 6.66699 6.05228 6.66699 5.5C6.66699 4.94772 6.21928 4.5 5.66699 4.5C5.11471 4.5 4.66699 4.94772 4.66699 5.5C4.66699 6.05228 5.11471 6.5 5.66699 6.5Z" stroke="#5825EB" stroke-miterlimit="10" stroke-linecap="round" stroke-linejoin="round"/>
<path d="M5.6 8.86621H10.4C10.7333 8.86621 11 9.13288 11 9.46621C11 11.1262 9.66 12.4662 8 12.4662C6.34 12.4662 5 11.1262 5 9.46621C5 9.13288 5.26667 8.86621 5.6 8.86621Z" stroke="#5825EB" stroke-miterlimit="10" stroke-linecap="round" stroke-linejoin="round"/>
</svg>
