<svg width="24" height="24" viewBox="0 0 24 24" fill="none" xmlns="http://www.w3.org/2000/svg">
<path d="M21.0891 6.98344C20.2391 6.04344 18.8191 5.57344 16.7591 5.57344H16.5191V5.53344C16.5191 3.85344 16.5191 1.77344 12.7591 1.77344H11.2391C7.47906 1.77344 7.47906 3.86344 7.47906 5.53344V5.58344H7.23906C5.16906 5.58344 3.75906 6.05344 2.90906 6.99344C1.91906 8.09344 1.94906 9.57344 2.04906 10.5834L2.05906 10.6534L2.13652 11.4667C2.15078 11.6165 2.23144 11.7518 2.35734 11.8342C2.59714 11.9911 2.99849 12.2498 3.23906 12.3834C3.37906 12.4734 3.52906 12.5534 3.67906 12.6334C5.38906 13.5734 7.26906 14.2034 9.17906 14.5134C9.26906 15.4534 9.67906 16.5534 11.8691 16.5534C14.0591 16.5534 14.4891 15.4634 14.5591 14.4934C16.5991 14.1634 18.5691 13.4534 20.3491 12.4134C20.4091 12.3834 20.4491 12.3534 20.4991 12.3234C20.8958 12.0992 21.3074 11.8229 21.6825 11.5523C21.7955 11.4708 21.8678 11.3447 21.8832 11.2062L21.8991 11.0634L21.9491 10.5934C21.9591 10.5334 21.9591 10.4834 21.9691 10.4134C22.0491 9.40344 22.0291 8.02344 21.0891 6.98344ZM13.0891 13.8334C13.0891 14.8934 13.0891 15.0534 11.8591 15.0534C10.6291 15.0534 10.6291 14.8634 10.6291 13.8434V12.5834H13.0891V13.8334ZM8.90906 5.57344V5.53344C8.90906 3.83344 8.90906 3.20344 11.2391 3.20344H12.7591C15.0891 3.20344 15.0891 3.84344 15.0891 5.53344V5.58344H8.90906V5.57344Z" fill="#FCFDFF"/>
<path d="M20.8733 13.7349C21.2269 13.5666 21.6342 13.8469 21.5988 14.2369L21.2398 18.1907C21.0298 20.1907 20.2098 22.2307 15.8098 22.2307H8.18984C3.78984 22.2307 2.96984 20.1907 2.75984 18.2007L2.41913 14.4529C2.38409 14.0674 2.78205 13.7874 3.13468 13.947C4.2741 14.4625 6.37724 15.3771 7.67641 15.7174C7.84072 15.7604 7.97361 15.878 8.04556 16.0319C8.65253 17.33 9.96896 18.0207 11.8698 18.0207C13.752 18.0207 15.085 17.3034 15.694 16.0021C15.766 15.8481 15.8991 15.7305 16.0635 15.6873C17.443 15.3243 19.6816 14.3019 20.8733 13.7349Z" fill="#FCFDFF"/>
</svg>
