<svg width="17" height="16" viewBox="0 0 17 16" fill="none" xmlns="http://www.w3.org/2000/svg">
<path d="M8.83348 14.6675H3.22014C2.44681 14.6675 1.81348 14.0475 1.81348 13.2875V3.39422C1.81348 1.64755 3.11348 0.854217 4.70681 1.63422L7.66681 3.08755C8.30681 3.40088 8.83348 4.23422 8.83348 4.94088V14.6675Z" stroke="#5825EB" stroke-width="1.5" stroke-linecap="round" stroke-linejoin="round"/>
<path d="M15.1463 10.0406V12.5606C15.1463 14.0006 14.4797 14.6673 13.0397 14.6673H8.83301V6.94727L9.14634 7.01393L12.1463 7.68727L13.4997 7.98727C14.3797 8.1806 15.0997 8.63393 15.1397 9.91393C15.1463 9.95393 15.1463 9.99393 15.1463 10.0406Z" stroke="#5825EB" stroke-width="1.5" stroke-linecap="round" stroke-linejoin="round"/>
<path d="M4.16699 6H6.48033" stroke="#5825EB" stroke-width="1.5" stroke-linecap="round" stroke-linejoin="round"/>
<path d="M4.16699 8.66602H6.48033" stroke="#5825EB" stroke-width="1.5" stroke-linecap="round" stroke-linejoin="round"/>
<path d="M12.1465 7.687V9.83367C12.1465 10.6603 11.4732 11.3337 10.6465 11.3337C9.81982 11.3337 9.14648 10.6603 9.14648 9.83367V7.01367L12.1465 7.687Z" stroke="#5825EB" stroke-width="1.5" stroke-linecap="round" stroke-linejoin="round"/>
<path d="M15.1398 9.91417C15.0998 10.7008 14.4465 11.3342 13.6465 11.3342C12.8198 11.3342 12.1465 10.6608 12.1465 9.83417V7.6875L13.4998 7.9875C14.3798 8.18083 15.0998 8.63417 15.1398 9.91417Z" stroke="#5825EB" stroke-width="1.5" stroke-linecap="round" stroke-linejoin="round"/>
</svg>
