<svg width="24" height="24" viewBox="0 0 24 24" fill="none" xmlns="http://www.w3.org/2000/svg">
<path d="M16.7502 3.56V2C16.7502 1.59 16.4102 1.25 16.0002 1.25C15.5902 1.25 15.2502 1.59 15.2502 2V3.5H8.75023V2C8.75023 1.59 8.41023 1.25 8.00023 1.25C7.59023 1.25 7.25023 1.59 7.25023 2V3.56C4.55023 3.81 3.24023 5.42 3.04023 7.81C3.02023 8.1 3.26023 8.34 3.54023 8.34H20.4602C20.7502 8.34 20.9902 8.09 20.9602 7.81C20.7602 5.42 19.4502 3.81 16.7502 3.56Z" fill="#FCFDFF"/>
<path d="M20 9.84375H4C3.45 9.84375 3 10.2937 3 10.8438V17.0037C3 20.0037 4.5 22.0037 8 22.0037H16C19.5 22.0037 21 20.0037 21 17.0037V10.8438C21 10.2937 20.55 9.84375 20 9.84375ZM9.21 18.2137C9.11 18.3037 9 18.3737 8.88 18.4237C8.76 18.4738 8.63 18.5037 8.5 18.5037C8.37 18.5037 8.24 18.4738 8.12 18.4237C8 18.3737 7.89 18.3037 7.79 18.2137C7.61 18.0237 7.5 17.7638 7.5 17.5037C7.5 17.2437 7.61 16.9838 7.79 16.7938C7.89 16.7038 8 16.6337 8.12 16.5837C8.36 16.4837 8.64 16.4837 8.88 16.5837C9 16.6337 9.11 16.7038 9.21 16.7938C9.39 16.9838 9.5 17.2437 9.5 17.5037C9.5 17.7638 9.39 18.0237 9.21 18.2137ZM9.42 14.3837C9.37 14.5037 9.3 14.6137 9.21 14.7137C9.11 14.8038 9 14.8737 8.88 14.9237C8.76 14.9738 8.63 15.0037 8.5 15.0037C8.37 15.0037 8.24 14.9738 8.12 14.9237C8 14.8737 7.89 14.8038 7.79 14.7137C7.7 14.6137 7.63 14.5037 7.58 14.3837C7.53 14.2638 7.5 14.1337 7.5 14.0037C7.5 13.8737 7.53 13.7437 7.58 13.6237C7.63 13.5037 7.7 13.3937 7.79 13.2937C7.89 13.2037 8 13.1337 8.12 13.0837C8.36 12.9837 8.64 12.9837 8.88 13.0837C9 13.1337 9.11 13.2037 9.21 13.2937C9.3 13.3937 9.37 13.5037 9.42 13.6237C9.47 13.7437 9.5 13.8737 9.5 14.0037C9.5 14.1337 9.47 14.2638 9.42 14.3837ZM12.71 14.7137C12.61 14.8038 12.5 14.8737 12.38 14.9237C12.26 14.9738 12.13 15.0037 12 15.0037C11.87 15.0037 11.74 14.9738 11.62 14.9237C11.5 14.8737 11.39 14.8038 11.29 14.7137C11.11 14.5237 11 14.2638 11 14.0037C11 13.7437 11.11 13.4837 11.29 13.2937C11.39 13.2037 11.5 13.1337 11.62 13.0837C11.86 12.9737 12.14 12.9737 12.38 13.0837C12.5 13.1337 12.61 13.2037 12.71 13.2937C12.89 13.4837 13 13.7437 13 14.0037C13 14.2638 12.89 14.5237 12.71 14.7137Z" fill="#FCFDFF"/>
</svg>
