<svg width="20" height="21" viewBox="0 0 20 21" fill="none" xmlns="http://www.w3.org/2000/svg">
<path d="M5.63315 18.734H14.3665C16.6665 18.734 17.5831 17.3257 17.6915 15.609L18.1248 8.72572C18.2415 6.92572 16.8081 5.40072 14.9998 5.40072C14.4915 5.40072 14.0248 5.10905 13.7915 4.65905L13.1915 3.45072C12.8081 2.69238 11.8081 2.06738 10.9581 2.06738H9.04981C8.19148 2.06738 7.19148 2.69238 6.80815 3.45072L6.20815 4.65905C5.97481 5.10905 5.50815 5.40072 4.99981 5.40072C3.19148 5.40072 1.75815 6.92572 1.87481 8.72572L2.30815 15.609C2.40815 17.3257 3.33315 18.734 5.63315 18.734Z" stroke="#5825EB" stroke-linecap="round" stroke-linejoin="round"/>
<path d="M8.75 7.06738H11.25" stroke="#5825EB" stroke-linecap="round" stroke-linejoin="round"/>
<path d="M10.0003 15.4001C11.492 15.4001 12.7087 14.1834 12.7087 12.6917C12.7087 11.2001 11.492 9.9834 10.0003 9.9834C8.50866 9.9834 7.29199 11.2001 7.29199 12.6917C7.29199 14.1834 8.50866 15.4001 10.0003 15.4001Z" stroke="#5825EB" stroke-linecap="round" stroke-linejoin="round"/>
</svg>
