<svg width="12" height="7" viewBox="0 0 12 7" fill="none" xmlns="http://www.w3.org/2000/svg">
<path d="M10.7127 0.30227C10.5179 0.108668 10.2545 0 9.97987 0C7.17137 0 4.04271 0 1.1028 0C0.828187 0 0.564731 0.108668 0.369973 0.30227C0.272546 0.398902 0.195215 0.513869 0.142442 0.640538C0.0896697 0.767207 0.0625 0.903071 0.0625 1.04029C0.0625 1.17752 0.0896697 1.31338 0.142442 1.44005C0.195215 1.56672 0.272546 1.68169 0.369973 1.77832L4.77733 6.18567C4.87396 6.2831 4.98892 6.36043 5.11559 6.4132C5.24226 6.46597 5.37813 6.49314 5.51535 6.49314C5.65257 6.49314 5.78844 6.46597 5.91511 6.4132C6.04178 6.36043 6.15674 6.2831 6.25337 6.18567L10.7127 1.77832C10.8101 1.68169 10.8875 1.56672 10.9402 1.44005C10.993 1.31338 11.0202 1.17752 11.0202 1.04029C11.0202 0.903071 10.993 0.767207 10.9402 0.640538C10.8875 0.513869 10.8101 0.398902 10.7127 0.30227Z" fill="#3E3D5D"/>
</svg>
