<svg width="8" height="5" viewBox="0 0 8 5" fill="none" xmlns="http://www.w3.org/2000/svg">
<path d="M7.65282 0.697687C7.52545 0.57107 7.35315 0.5 7.17355 0.5C5.33676 0.5 3.29059 0.5 1.36787 0.5C1.18827 0.5 1.01596 0.57107 0.88859 0.697687C0.824872 0.760886 0.774297 0.836075 0.739783 0.918917C0.705269 1.00176 0.6875 1.09062 0.6875 1.18036C0.6875 1.27011 0.705269 1.35896 0.739783 1.44181C0.774297 1.52465 0.824872 1.59984 0.88859 1.66304L3.77104 4.54548C3.83424 4.6092 3.90942 4.65978 3.99227 4.69429C4.07511 4.7288 4.16397 4.74657 4.25371 4.74657C4.34346 4.74657 4.43231 4.7288 4.51515 4.69429C4.598 4.65978 4.67319 4.6092 4.73638 4.54548L7.65282 1.66304C7.71654 1.59984 7.76712 1.52465 7.80163 1.44181C7.83614 1.35896 7.85391 1.27011 7.85391 1.18036C7.85391 1.09062 7.83614 1.00176 7.80163 0.918917C7.76712 0.836075 7.71654 0.760886 7.65282 0.697687Z" fill="#0E0D35"/>
</svg>
