<svg width="16" height="17" viewBox="0 0 16 17" fill="none" xmlns="http://www.w3.org/2000/svg">
<path d="M10.6663 9.0987V11.8987C10.6663 14.232 9.73301 15.1654 7.39967 15.1654H4.59967C2.26634 15.1654 1.33301 14.232 1.33301 11.8987V9.0987C1.33301 6.76536 2.26634 5.83203 4.59967 5.83203H7.39967C9.73301 5.83203 10.6663 6.76536 10.6663 9.0987Z" stroke="#0E0D35" stroke-width="1.5" stroke-linecap="round" stroke-linejoin="round"/>
<path d="M14.6663 5.0987V7.8987C14.6663 10.232 13.733 11.1654 11.3997 11.1654H10.6663V9.0987C10.6663 6.76536 9.73301 5.83203 7.39967 5.83203H5.33301V5.0987C5.33301 2.76536 6.26634 1.83203 8.59967 1.83203H11.3997C13.733 1.83203 14.6663 2.76536 14.6663 5.0987Z" stroke="#0E0D35" stroke-width="1.5" stroke-linecap="round" stroke-linejoin="round"/>
</svg>
