<svg width="16" height="17" viewBox="0 0 16 17" fill="none" xmlns="http://www.w3.org/2000/svg">
<path d="M12.9333 6.08944L12.9333 6.0896C13.2771 6.11789 13.5338 6.41848 13.5063 6.7628L13.5063 6.76383L13.5062 6.76416L13.5061 6.76514L13.5059 6.76848L13.5049 6.78006L13.5015 6.8217L13.4891 6.97391C13.4784 7.10428 13.4631 7.29014 13.4443 7.51775C13.4066 7.97298 13.3545 8.59526 13.2961 9.2748C13.1793 10.6333 13.0368 12.2225 12.9326 13.1626L12.9326 13.1626C12.8652 13.7696 12.6296 14.2677 12.25 14.6169C11.8704 14.9662 11.3568 15.1574 10.7507 15.1685L10.7506 15.1685C9.86132 15.1838 9.00326 15.1925 8.1644 15.1925C7.26014 15.1925 6.37861 15.1825 5.50648 15.1645C4.92195 15.1529 4.4198 14.957 4.04684 14.6075C3.67411 14.2581 3.4386 13.7631 3.37282 13.1672C3.16323 11.2775 2.80539 6.83552 2.79979 6.76271C2.77167 6.41855 3.02837 6.11706 3.37244 6.08957L3.37902 6.08905L3.37902 6.08922C3.70725 6.08035 4.01763 6.31216 4.04567 6.6622L4.04573 6.66301L4.04577 6.66358L4.04589 6.66508L4.04629 6.6702L4.04773 6.68819L4.05299 6.75349L4.07234 6.99166C4.0889 7.1947 4.11246 7.48149 4.14096 7.82372C4.19795 8.5082 4.27467 9.41434 4.35468 10.3156L4.38682 10.6753L12.9333 6.08944ZM12.9333 6.08944L12.927 6.08924M12.9333 6.08944L12.927 6.08924M12.927 6.08924C12.5961 6.07872 12.2884 6.31302 12.2605 6.6622L12.3851 6.67218M12.927 6.08924L4.61531 13.0298M4.61531 13.0298L4.61532 13.0298C4.6489 13.3353 4.74616 13.5499 4.89213 13.6898C5.03727 13.8288 5.24585 13.9087 5.5323 13.9145L5.53238 13.9145C7.19726 13.9498 8.89624 13.9518 10.728 13.9185C11.0362 13.9126 11.2555 13.8331 11.406 13.6937C11.5567 13.5541 11.6556 13.3384 11.6902 13.0251L11.6902 13.0251C11.882 11.2957 12.2062 7.32596 12.2545 6.73494C12.2582 6.68999 12.2603 6.66458 12.2606 6.66119L12.3851 6.67218M4.61531 13.0298C4.54908 12.4316 4.46745 11.5715 4.38683 10.6754L4.61531 13.0298ZM12.3851 6.67218C12.4071 6.39751 12.6504 6.20551 12.9231 6.21418M12.3851 6.67218C12.3848 6.6753 12.3828 6.6994 12.3793 6.74218C12.3322 7.31995 12.0068 11.3046 11.8144 13.0388C11.7411 13.7028 11.3864 14.0308 10.7304 14.0435L12.9231 6.21418M12.9231 6.21418C13.1984 6.23684 13.4037 6.47751 13.3817 6.75284M12.9231 6.21418L13.3817 6.75284M13.3817 6.75284C13.3815 6.75595 13.3795 6.77995 13.376 6.82255C13.3288 7.40035 13.0021 11.401 12.8084 13.1488C12.6791 14.3135 11.9097 15.0222 10.7484 15.0435L13.3817 6.75284ZM3.3824 6.21418C3.65373 6.20684 3.89907 6.39751 3.92107 6.67218L2.9244 6.75284C2.90173 6.47751 3.10707 6.23618 3.3824 6.21418ZM10.9941 2.71369L10.9944 2.71364L10.9924 2.70611C10.8197 2.06003 10.2321 1.60938 9.5636 1.60938H6.7416C6.07141 1.60938 5.48491 2.06166 5.3061 2.73635L5.30587 2.73629L5.30436 2.74388L5.14238 3.55441C5.14238 3.55443 5.14238 3.55445 5.14237 3.55447C5.10236 3.75344 4.93902 3.9038 4.74244 3.93097L4.68336 3.93471L2.5 3.93538C2.49999 3.93538 2.49997 3.93538 2.49996 3.93538C2.15494 3.9354 1.875 4.21535 1.875 4.56037C1.875 4.90541 2.15496 5.18537 2.5 5.18537H2.50004L4.66397 5.18471L4.67017 5.18511L4.67015 5.18537H4.67827L4.69442 5.18529L4.69568 5.18529L11.6081 5.18471L11.6218 5.18527L11.6218 5.18537H11.6269L11.6371 5.18527L13.8053 5.18537C14.1504 5.18537 14.4303 4.90541 14.4303 4.56037C14.4303 4.21534 14.1504 3.93538 13.8053 3.93538L11.6186 3.9353C11.3978 3.93138 11.2067 3.77216 11.1635 3.5547L11.1635 3.55436L10.9941 2.71369ZM9.93771 3.80031C9.94691 3.84612 9.95789 3.89123 9.97059 3.93555H6.33471C6.34739 3.89119 6.35835 3.84605 6.36751 3.8002L6.36753 3.80012L6.52202 3.02432C6.54916 2.92761 6.6388 2.85938 6.7416 2.85938H9.5636C9.67234 2.85938 9.75733 2.93285 9.77674 2.9948L9.93769 3.8002L9.93771 3.80031Z" fill="#0E0D35" stroke="#0E0D35" stroke-width="0.25"/>
</svg>
