<svg width="8" height="5" viewBox="0 0 8 5" fill="none" xmlns="http://www.w3.org/2000/svg">
<path d="M7.65282 0.197687C7.52545 0.0710697 7.35315 0 7.17355 0C5.33676 0 3.29059 0 1.36787 0C1.18827 0 1.01596 0.0710697 0.88859 0.197687C0.824872 0.260886 0.774297 0.336075 0.739783 0.418917C0.705269 0.50176 0.6875 0.590617 0.6875 0.680361C0.6875 0.770106 0.705269 0.858962 0.739783 0.941805C0.774297 1.02465 0.824872 1.09984 0.88859 1.16304L3.77104 4.04548C3.83424 4.1092 3.90942 4.15978 3.99227 4.19429C4.07511 4.2288 4.16397 4.24657 4.25371 4.24657C4.34346 4.24657 4.43231 4.2288 4.51515 4.19429C4.598 4.15978 4.67319 4.1092 4.73638 4.04548L7.65282 1.16304C7.71654 1.09984 7.76712 1.02465 7.80163 0.941805C7.83614 0.858962 7.85391 0.770106 7.85391 0.680361C7.85391 0.590617 7.83614 0.50176 7.80163 0.418917C7.76712 0.336075 7.71654 0.260886 7.65282 0.197687Z" fill="#0E0D35"/>
</svg>
