<svg width="20" height="20" viewBox="0 0 20 20" fill="none" xmlns="http://www.w3.org/2000/svg">
<path d="M18.0261 5.91972L15.2581 5.50128C14.36 5.36551 13.5882 4.79212 13.1989 3.97149L11.9413 1.32052C11.2153 -0.210063 9.11521 -0.210632 8.3889 1.32047L7.13127 3.97148C6.74196 4.79212 5.97013 5.36551 5.07203 5.50128L2.30404 5.91972C0.680513 6.16511 0.0311497 8.24272 1.20632 9.43456L3.27252 11.5299C3.88588 12.1519 4.16468 13.0298 4.02258 13.8917L3.53055 16.8762C3.25319 18.5583 4.95163 19.843 6.4045 19.0486L8.85453 17.7085C9.67115 17.2618 10.659 17.2618 11.4757 17.7085L13.9258 19.0486C15.3803 19.844 17.0764 18.5546 16.7996 16.8762L16.3075 13.8917C16.1654 13.0298 16.4443 12.1519 17.0576 11.5299L19.1239 9.43456C20.2986 8.24313 19.6503 6.16527 18.0261 5.91972Z" fill="#E7E7EB"/>
</svg>
