<svg width="16" height="16" viewBox="0 0 16 16" fill="none" xmlns="http://www.w3.org/2000/svg">
<path d="M14.1542 7.93096L14.1551 7.93317C14.1643 7.9542 14.169 7.97689 14.169 7.99984C14.169 8.02278 14.1643 8.04548 14.1551 8.0665L14.1542 8.06872C12.8627 11.0673 10.4797 12.8332 8.00004 12.8332C5.52041 12.8332 3.13743 11.0673 1.84593 8.06872L1.84593 8.06871L1.84497 8.0665C1.83579 8.04548 1.83105 8.02278 1.83105 7.99984C1.83105 7.97689 1.83579 7.9542 1.84497 7.93317L1.84497 7.93317L1.84593 7.93096C3.13743 4.93237 5.52041 3.1665 8.00004 3.1665C10.4797 3.1665 12.8627 4.93237 14.1542 7.93096ZM2.28022 7.78853L2.18169 7.99984L2.28022 8.21115C3.48618 10.7973 5.63114 12.4998 8.00004 12.4998C10.3689 12.4998 12.5139 10.7973 13.7199 8.21115L13.8184 7.99984L13.7199 7.78853C12.5139 5.20234 10.3689 3.49984 8.00004 3.49984C5.63114 3.49984 3.48618 5.20234 2.28022 7.78853ZM6.79631 6.19832C7.15262 5.96024 7.57152 5.83317 8.00004 5.83317C8.57468 5.83317 9.12578 6.06144 9.53211 6.46777C9.93844 6.8741 10.1667 7.4252 10.1667 7.99984C10.1667 8.42836 10.0396 8.84727 9.80156 9.20357C9.56349 9.55988 9.2251 9.83759 8.82919 10.0016C8.43329 10.1656 7.99764 10.2085 7.57735 10.1249C7.15706 10.0413 6.77099 9.83492 6.46798 9.5319C6.16497 9.22889 5.95861 8.84282 5.87501 8.42253C5.79141 8.00224 5.83432 7.5666 5.99831 7.17069C6.16229 6.77478 6.44 6.4364 6.79631 6.19832ZM6.9815 9.5242C7.28299 9.72565 7.63745 9.83317 8.00004 9.83317C8.48628 9.83317 8.95259 9.64002 9.29641 9.2962C9.64022 8.95238 9.83338 8.48607 9.83338 7.99984C9.83338 7.63724 9.72585 7.28278 9.52441 6.98129C9.32296 6.6798 9.03663 6.44482 8.70163 6.30606C8.36663 6.1673 7.99801 6.13099 7.64238 6.20173C7.28675 6.27247 6.96008 6.44708 6.70368 6.70347C6.44729 6.95987 6.27268 7.28654 6.20194 7.64217C6.1312 7.9978 6.1675 8.36643 6.30627 8.70142C6.44503 9.03642 6.68001 9.32275 6.9815 9.5242Z" fill="#0E0D35" stroke="#0E0D35"/>
</svg>
