<svg width="20" height="20" viewBox="0 0 20 20" fill="none" xmlns="http://www.w3.org/2000/svg">
<path d="M17.7849 5.91972L15.0169 5.50128C14.1188 5.36551 13.347 4.79212 12.9577 3.97149L11.7001 1.32052C10.9741 -0.210063 8.874 -0.210632 8.14769 1.32047L6.89006 3.97148C6.50075 4.79212 5.72892 5.36551 4.83082 5.50128L2.06283 5.91972C0.439302 6.16511 -0.210061 8.24272 0.965109 9.43456L3.0313 11.5299C3.64467 12.1519 3.92347 13.0298 3.78137 13.8917L3.28933 16.8762C3.01198 18.5583 4.71042 19.843 6.16329 19.0486L8.61332 17.7085C9.42994 17.2618 10.4178 17.2618 11.2344 17.7085L13.6846 19.0486C15.1391 19.844 16.8352 18.5546 16.5584 16.8762L16.0663 13.8917C15.9242 13.0298 16.203 12.1519 16.8164 11.5299L18.8826 9.43456C20.0574 8.24313 19.4091 6.16527 17.7849 5.91972Z" fill="url(#paint0_linear_7959_28683)"/>
<defs>
<linearGradient id="paint0_linear_7959_28683" x1="0.803705" y1="0.172352" x2="21.1109" y2="2.8738" gradientUnits="userSpaceOnUse">
<stop stop-color="#FB9600"/>
<stop offset="1" stop-color="#FFC701"/>
</linearGradient>
</defs>
</svg>
