<svg width="14" height="19" viewBox="0 0 14 19" fill="none" xmlns="http://www.w3.org/2000/svg">
<path d="M7.00419 10.559C4.10307 8.219 0.757248 10.4425 0.651367 10.4637V2.09911C2.85368 0.542664 5.44775 0.839129 7.00419 2.09911C9.90532 4.43906 13.2511 2.22616 13.357 2.20499V10.5801C11.1335 12.1472 8.55005 11.8083 7.00419 10.5695V10.559Z" fill="#FF3446"/>
<path d="M0.651473 18.4997C0.355007 18.4997 0.12207 18.2667 0.12207 17.9703V1.0294C0.12207 0.732937 0.355007 0.5 0.651473 0.5C0.947938 0.5 1.18087 0.732937 1.18087 1.0294V17.9703C1.18087 18.2667 0.947938 18.4997 0.651473 18.4997Z" fill="black"/>
<path d="M6.67631 10.9714C5.10928 9.71147 2.55756 9.71147 0.990526 10.9714C0.75759 11.1514 0.42936 11.1197 0.249363 10.8867C0.0693663 10.6538 0.10113 10.3256 0.334067 10.1456C2.27168 8.58914 5.41633 8.58914 7.35394 10.1456C8.85744 11.3526 11.2715 11.4056 12.8491 10.2938V3.05159C10.9327 4.02569 8.35981 3.84569 6.69748 2.50101C5.13045 1.24103 2.57873 1.24103 1.0117 2.50101C0.778766 2.68101 0.450536 2.64924 0.270539 2.41631C0.0905424 2.18337 0.122306 1.85514 0.355243 1.67514C2.29286 0.118702 5.43751 0.118702 7.37512 1.67514C8.94215 2.93512 11.4939 2.93512 13.0609 1.67514C13.1388 1.61361 13.2324 1.5752 13.331 1.56431C13.4297 1.55341 13.5294 1.57046 13.6188 1.61352C13.7082 1.65657 13.7837 1.72389 13.8367 1.8078C13.8897 1.89172 13.9181 1.98883 13.9185 2.08808V10.5585C13.9185 10.7173 13.8444 10.8656 13.7174 10.9714C11.7797 12.5279 8.63509 12.5279 6.69748 10.9714H6.67631Z" fill="black"/>
</svg>
