<svg width="24" height="24" viewBox="0 0 24 24" fill="none" xmlns="http://www.w3.org/2000/svg">
<path d="M8.05078 10.1369V11.2969H11.3108V8.04688H10.1508C8.99078 8.04688 8.05078 8.98688 8.05078 10.1369Z" fill="#FCFDFF"/>
<path d="M8.05078 13.8631C8.05078 15.0131 8.99078 15.9531 10.1408 15.9531H11.3008V12.7031H8.05078V13.8631Z" fill="#FCFDFF"/>
<path d="M12.6992 15.9531H13.8592C15.0092 15.9531 15.9492 15.0131 15.9492 13.8631V12.7031H12.6992V15.9531Z" fill="#FCFDFF"/>
<path d="M16.19 2H7.81C4.17 2 2 4.17 2 7.81V16.18C2 19.83 4.17 22 7.81 22H16.18C19.82 22 21.99 19.83 21.99 16.19V7.81C22 4.17 19.83 2 16.19 2ZM17.35 13.86C17.35 15.78 15.78 17.35 13.86 17.35H10.14C8.22 17.35 6.65 15.79 6.65 13.86V10.14C6.65 8.22 8.22 6.65 10.14 6.65H13.86C15.78 6.65 17.35 8.21 17.35 10.14V13.86Z" fill="#FCFDFF"/>
<path d="M13.8592 8.04688H12.6992V11.3069H15.9592V10.1469C15.9492 8.98687 15.0092 8.04688 13.8592 8.04688Z" fill="#FCFDFF"/>
</svg>
