<svg width="48" height="49" viewBox="0 0 48 49" fill="none" xmlns="http://www.w3.org/2000/svg">
<g clip-path="url(#clip0_6317_85431)">
<path d="M36.1335 36.0905L34.1751 32.1738L32.2168 36.0905H36.1335Z" fill="#CFCFD7"/>
<path d="M43.7827 20.85H41.7903V16.6347C41.7903 16.4381 41.7491 16.2436 41.6693 16.0639C41.5894 15.8842 41.4728 15.7232 41.3269 15.5914C41.181 15.4596 41.0091 15.3598 40.8222 15.2985C40.6354 15.2373 40.4378 15.2158 40.2421 15.2357C40.0183 15.2584 35.0028 15.8256 32.5058 20.85H30.4624V23.9334C30.4624 27.8094 27.309 30.9628 23.433 30.9628H20.3496V44.2831C20.3496 46.6084 22.2414 48.5001 24.5666 48.5001H43.7827C46.1079 48.5002 47.9997 46.6084 47.9997 44.2832V25.0671C47.9997 22.7418 46.1079 20.85 43.7827 20.85ZM27.2718 39.6911L32.9167 28.4013C33.0335 28.1677 33.213 27.9712 33.4352 27.8339C33.6573 27.6966 33.9134 27.6238 34.1745 27.6238C34.4357 27.6238 34.6917 27.6966 34.9139 27.8339C35.1361 27.9712 35.3156 28.1677 35.4324 28.4013L41.0774 39.6911C41.4247 40.3858 41.1431 41.2304 40.4485 41.5778C39.7539 41.9253 38.9091 41.6437 38.5618 40.949L37.5392 38.9039H30.81L29.7875 40.949C29.5411 41.4417 29.0445 41.7266 28.5286 41.7266C28.3173 41.7266 28.1027 41.6788 27.9009 41.5778C27.2061 41.2305 26.9246 40.3858 27.2718 39.6911Z" fill="#CFCFD7"/>
<path d="M23.4332 28.1502C25.7585 28.1502 27.6502 26.2584 27.6502 23.9332V4.71706C27.6502 2.39178 25.7584 0.5 23.4332 0.5H4.21706C1.89178 0.5 0 2.39178 0 4.71706V23.9332C0 26.2585 1.89178 28.1502 4.21697 28.1502H6.20934V32.3654C6.20935 32.5621 6.25059 32.7565 6.33042 32.9362C6.41024 33.1159 6.52686 33.2769 6.67276 33.4088C6.81865 33.5406 6.99057 33.6404 7.17742 33.7016C7.36427 33.7629 7.5619 33.7843 7.75753 33.7645C7.98141 33.7418 12.9968 33.1746 15.4939 28.1502H23.4332Z" fill="#5825EB"/>
<path d="M20.7089 20.3948C19.5172 21.4129 18.1229 21.9893 16.5994 22.2789C15.6052 22.4681 14.6026 22.5619 13.5923 22.4437C11.9739 22.2545 10.4837 21.7391 9.27977 20.5956C7.88386 19.2696 7.6636 17.4077 8.45477 15.6928C9.00015 14.5105 9.91614 13.6638 11.0008 12.9825C11.0618 12.9442 11.124 12.9071 11.1911 12.866C10.9969 12.5742 10.8205 12.2884 10.623 12.0177C10.2019 11.4407 10.026 10.7993 10.0343 10.0869C10.0521 8.54069 10.5531 7.20692 11.7753 6.22268C13.0436 5.20127 14.7203 5.27728 15.9519 6.3575C16.0623 6.45404 16.1766 6.54669 16.287 6.64323C16.7076 7.01052 16.9395 7.44826 16.7803 8.03969C16.7403 8.01417 16.6898 7.98532 16.6432 7.95203C15.9436 7.45603 15.1519 7.22967 14.3125 7.29902C13.5385 7.36282 12.8356 7.96868 12.7052 8.80311C12.6159 9.37512 12.9399 9.80788 13.5979 10.0953C14.5116 10.4947 15.4565 10.5652 16.4169 10.3427C17.0716 10.1913 17.7129 9.98264 18.3598 9.799C18.4353 9.77736 18.5096 9.75295 18.615 9.72022C18.2156 11.1583 17.8261 12.5609 17.4277 13.9945C17.3501 13.9412 17.2868 13.898 17.2236 13.8547C16.2199 13.1678 15.1225 13.0657 13.9652 13.3282C12.683 13.6189 12.1215 14.5332 11.8707 15.7283C11.59 17.0637 12.2824 17.9392 13.2605 18.6655C14.2409 19.3928 15.3805 19.7507 16.5567 20.0009C17.9254 20.2916 19.3119 20.3832 20.7089 20.3388V20.3942V20.3948Z" fill="#FCFDFF"/>
<path d="M35.2755 8.95748C34.9157 8.95748 34.5558 8.82014 34.2812 8.54554L31.4588 5.72311C30.9096 5.17392 30.9096 4.28357 31.4588 3.73439L34.2811 0.911855C34.8303 0.362668 35.7207 0.362762 36.2698 0.911855C36.819 1.46104 36.819 2.35139 36.2698 2.90057L35.8349 3.33548C42.577 3.62939 47.9716 9.20545 47.9716 16.0185C47.9716 16.7952 47.342 17.4248 46.5654 17.4248C45.7887 17.4248 45.1591 16.7952 45.1591 16.0185C45.1591 10.767 41.042 6.45979 35.8661 6.15314L36.2698 6.55682C36.819 7.10601 36.819 7.99635 36.2698 8.54554C35.9953 8.82023 35.6353 8.95748 35.2755 8.95748Z" fill="#B7B7C3"/>
<path d="M12.6454 40.0425C13.0052 40.0425 13.3651 40.1799 13.6397 40.4545L16.4621 43.2769C17.0113 43.8261 17.0113 44.7164 16.4621 45.2656L13.6398 48.0881C13.0906 48.6373 12.2002 48.6372 11.6511 48.0881C11.1019 47.539 11.1019 46.6486 11.6511 46.0994L12.086 45.6645C5.34394 45.3706 -0.0507156 39.7945 -0.050715 32.9815C-0.050715 32.2048 0.57891 31.5752 1.35554 31.5752C2.13216 31.5752 2.76179 32.2048 2.76178 32.9815C2.76178 38.233 6.87891 42.5402 12.0548 42.8469L11.6511 42.4432C11.1019 41.894 11.1019 41.0036 11.6511 40.4545C11.9256 40.1798 12.2856 40.0425 12.6454 40.0425Z" fill="#B7B7C3"/>
</g>
<defs>
<clipPath id="clip0_6317_85431">
<rect width="48" height="48" fill="white" transform="translate(0 0.5)"/>
</clipPath>
</defs>
</svg>
