<svg width="120" height="107" viewBox="0 0 120 107" fill="none" xmlns="http://www.w3.org/2000/svg">
<path d="M106.648 58.3026C106.648 69.3524 102.946 79.5222 96.8078 87.7362C93.3977 92.1366 89.3056 96.048 84.6289 99.0794C77.0293 104.066 67.9682 107 58.2251 107C31.4315 107 9.80176 85.1938 9.80176 58.4004C9.80176 31.5093 31.5289 9.80078 58.2251 9.80078C67.9682 9.80078 77.0293 12.7344 84.6289 17.6237C89.3056 20.655 93.3977 24.5665 96.8078 28.9668C102.946 37.0831 106.648 47.2528 106.648 58.3026Z" fill="#E2EBFF"/>
<path d="M74.8848 26.8156V97.1237L92.6172 99.9595C96.7094 100.644 100.509 97.4171 100.509 93.3101V27.5001C100.509 24.1754 98.0734 21.3396 94.7607 20.8506L90.3763 20.0684L74.9822 26.7178L74.8848 26.8156Z" fill="#F2F5FC"/>
<path d="M44 20.6554L60.3684 19.0908L44 31.2163V20.6554Z" fill="#DDE1F0"/>
<path d="M16.6211 22.024V43.4392L29.2872 37.7676L34.8407 35.3229L43.9993 31.2159V20.655L23.0516 16.7436C22.8567 16.7436 22.7593 16.6458 22.5644 16.6458C19.9338 16.3525 17.5954 18.0148 16.816 20.4595C16.7185 21.0462 16.6211 21.5351 16.6211 22.024Z" fill="#F2F5FC"/>
<path d="M16.6211 60.7471V90.6696C16.6211 91.1585 16.7185 91.6474 16.816 92.1364C17.0108 92.9187 17.498 93.7009 18.0826 94.2877C18.862 95.07 19.8363 95.6567 21.0055 95.95L21.3952 96.0478L25.4873 96.8301L28.2154 97.319L43.9018 100.253V48.2305L43.4147 48.426L38.5431 50.6751L16.6211 60.7471Z" fill="#F2F5FC"/>
<path d="M74.8848 26.8159V17.624L90.3763 20.0687L74.9822 26.7181L74.8848 26.8159Z" fill="#D6DBEB"/>
<path d="M44 48.231V31.2163L60.3684 19.0908L74.8857 17.624V26.8159L44 48.231Z" fill="#C5CCDE"/>
<path d="M43.9993 48.2306L16.6211 60.7472V43.4391L43.9993 31.2158V48.2306Z" fill="#D6DBEB"/>
<path d="M44.7785 89.3985L43.999 89.6918V48.2306L74.8847 26.8154V72.0903H70.4029L44.7785 89.3985Z" fill="#DDE1F0"/>
<path d="M100.607 72.0898V93.3094C100.607 97.4164 96.9044 100.643 92.7149 99.9588L74.9824 97.1231V72.0898H100.607Z" fill="#CCD7FF"/>
<path d="M43.9992 89.6914V100.252L25.4873 96.8298L43.9992 89.6914Z" fill="#CCD7FF"/>
<path d="M44.7785 89.398L70.4029 72.0898H74.8847V97.2208L43.999 100.252V89.6913L44.7785 89.398Z" fill="#B3C3FF"/>
<path d="M16.8164 92.1365C17.0113 92.9187 17.4984 93.701 18.083 94.2878C18.8625 95.07 19.8368 95.6568 21.0059 95.9501L21.3957 96.0479L25.4878 96.8302L28.2159 97.3191L43.9023 93.0165L44.4869 92.821L74.8854 74.2416H100.51V66.9077L74.8854 67.2988H72.2548L43.9997 49.3062L43.5126 48.5239L34.8412 35.3228L22.6623 16.7435C20.0316 16.4501 17.6933 18.1125 16.9138 20.5571L29.2876 37.8652L38.5436 50.773L43.9023 58.3025L64.9474 71.797L43.9023 85.487L43.7074 85.5848L16.8164 92.1365Z" fill="white"/>
<path d="M23.0516 16.7436C22.8567 16.7436 22.7593 16.6458 22.5644 16.6458C19.9338 16.3525 17.5954 18.0148 16.816 20.4595C16.7185 20.9484 16.6211 21.4373 16.6211 22.024V43.4392V60.7473L38.5431 50.6753L16.6211 60.7473V90.6698C16.6211 91.1587 16.7185 91.6477 16.816 92.1366C17.0108 92.9189 17.498 93.7012 18.0826 94.2879C18.862 95.0702 19.8363 95.6569 21.0055 95.9502L21.3952 96.048L25.4873 96.8303L28.2154 97.3192L43.9018 100.253V93.0167V100.253L74.7875 97.2215L92.52 100.057C92.8123 100.057 93.0072 100.155 93.2995 100.155C94.5661 100.253 95.8327 99.9595 96.807 99.3727C97.0019 99.275 97.1967 99.1772 97.3916 98.9816C98.171 98.3949 98.853 97.7104 99.3402 96.9281C99.4376 96.7325 99.5351 96.537 99.7299 96.3414C100.12 95.4613 100.412 94.4835 100.412 93.4078V72.0905V66.9078V27.5001C100.412 24.1753 97.9762 21.3395 94.6635 20.8506L90.3765 20.0683L74.885 17.6237L60.3677 19.0905L43.9993 31.2159V20.655L29.1897 17.917L23.0516 16.7436ZM56.5679 39.5277L43.9018 48.2307V49.3063V48.2307L56.5679 39.5277ZM43.9993 58.3026V85.4871V58.3026Z" stroke="#182052" stroke-miterlimit="10" stroke-linecap="round" stroke-linejoin="round"/>
<path d="M14.9355 15.8472C16.2148 15.4299 16.9148 14.0507 16.499 12.7667C16.0832 11.4827 14.709 10.7802 13.4297 11.1975C12.1504 11.6148 11.4504 12.994 11.8662 14.278C12.282 15.562 13.6562 16.2645 14.9355 15.8472Z" fill="#E2EBFF"/>
<path d="M24.3472 11.2954C25.2171 11.0116 25.6931 10.0738 25.4104 9.20069C25.1276 8.32758 24.1932 7.84983 23.3232 8.13362C22.4533 8.41741 21.9773 9.35526 22.26 10.2284C22.5428 11.1015 23.4772 11.5792 24.3472 11.2954Z" fill="#E2EBFF"/>
<path d="M2.59913 63.8804C3.46907 63.5966 3.94508 62.6588 3.66232 61.7857C3.37956 60.9126 2.44512 60.4348 1.57517 60.7186C0.705229 61.0024 0.22922 61.9402 0.511977 62.8133C0.794734 63.6864 1.72918 64.1642 2.59913 63.8804Z" fill="#84A2FF"/>
<path d="M117.267 43.4403C118.777 42.0559 118.882 39.7055 117.503 38.1905C116.123 36.6756 113.782 36.5698 112.272 37.9542C110.763 39.3386 110.657 41.689 112.037 43.204C113.416 44.7189 115.758 44.8247 117.267 43.4403Z" fill="#E2EBFF"/>
<path d="M117.547 26.7818C118.183 26.1989 118.227 25.2093 117.646 24.5714C117.065 23.9335 116.079 23.889 115.444 24.4719C114.808 25.0548 114.764 26.0444 115.345 26.6823C115.925 27.3202 116.911 27.3647 117.547 26.7818Z" fill="#84A2FF"/>
<path d="M59.5892 14.2014C60.4501 14.2014 61.1481 13.5009 61.1481 12.6368C61.1481 11.7727 60.4501 11.0723 59.5892 11.0723C58.7282 11.0723 58.0303 11.7727 58.0303 12.6368C58.0303 13.5009 58.7282 14.2014 59.5892 14.2014Z" fill="#EAEEF9"/>
<path opacity="0.2" d="M64.0711 22.8067C64.0711 24.8602 63.6814 27.0115 62.9994 29.2606C61.6353 33.7587 59.1995 38.5502 56.6663 43.1462C53.8408 48.2311 50.8205 53.2181 48.9693 57.4229C48.677 58.2052 47.8975 58.5964 47.1181 58.5964C46.3386 58.5964 45.5592 58.1074 45.2669 57.4229C40.8825 47.4488 30.165 33.4654 30.165 22.8067C30.165 13.4192 37.7647 5.79195 47.1181 5.79195C56.4715 5.69416 64.0711 13.3215 64.0711 22.8067Z" fill="#EA67A4"/>
<path d="M61.6356 18.9923C61.6356 21.0458 61.2458 23.1971 60.5638 25.4462C59.1998 29.9443 56.764 34.7358 54.2308 39.3318C51.4053 44.4167 48.3849 49.4037 46.5337 53.6085C46.2414 54.3908 45.462 54.782 44.6825 54.782C43.9031 54.782 43.1236 54.293 42.8313 53.6085C38.4469 43.7321 27.7295 29.7488 27.7295 18.9923C27.7295 9.60484 35.3291 1.97754 44.6825 1.97754C54.0359 1.97754 61.6356 9.60484 61.6356 18.9923Z" fill="#EA67A4"/>
<path d="M43.4156 1C43.5131 1 43.6105 1 43.7079 1C53.0613 1 60.6609 8.62731 60.6609 18.0148C60.6609 20.0683 60.2712 22.2196 59.5892 24.4686C58.2252 28.9668 55.7894 33.7583 53.2562 38.3542C50.4307 43.4391 47.4103 48.4262 45.5591 52.631C45.2668 53.4133 44.4874 53.8044 43.7079 53.8044C42.9285 53.8044 42.149 53.3155 41.8567 52.631C37.4723 42.7546 26.7549 28.7712 26.7549 18.0148C26.7549 12.1476 29.7753 6.86716 34.2571 3.83579" stroke="#182052" stroke-miterlimit="10" stroke-linecap="round" stroke-linejoin="round"/>
<path d="M37.5703 2.1724C37.7652 2.07497 37.96 1.97754 38.1549 1.97754" stroke="#182052" stroke-miterlimit="10" stroke-linecap="round" stroke-linejoin="round"/>
<path d="M44.6826 26.8151C48.6645 26.8151 51.8925 23.5754 51.8925 19.5789C51.8925 15.5825 48.6645 12.3428 44.6826 12.3428C40.7006 12.3428 37.4727 15.5825 37.4727 19.5789C37.4727 23.5754 40.7006 26.8151 44.6826 26.8151Z" fill="white"/>
<path d="M72.3516 67.3971L100.607 66.9082" stroke="#182052" stroke-miterlimit="10" stroke-linecap="round" stroke-linejoin="round"/>
<path d="M64.9477 71.7969L44.682 84.998L44 85.3891" stroke="#182052" stroke-miterlimit="10" stroke-linecap="round" stroke-linejoin="round"/>
</svg>
