<svg width="20" height="20" viewBox="0 0 20 20" fill="none" xmlns="http://www.w3.org/2000/svg">
<path d="M10 15.8327C12.7583 15.8327 15 13.591 15 10.8327V6.66602C15 3.90768 12.7583 1.66602 10 1.66602C7.24167 1.66602 5 3.90768 5 6.66602V10.8327C5 13.591 7.24167 15.8327 10 15.8327Z" stroke="#B7B7C3" stroke-width="1.5" stroke-linecap="round" stroke-linejoin="round"/>
<path d="M2.5 9.16602V10.8327C2.5 14.9743 5.85833 18.3327 10 18.3327C14.1417 18.3327 17.5 14.9743 17.5 10.8327V9.16602" stroke="#B7B7C3" stroke-width="1.5" stroke-linecap="round" stroke-linejoin="round"/>
<path d="M7.5918 6.23338C9.07513 5.69044 10.6918 5.69044 12.1751 6.23338" stroke="#B7B7C3" stroke-width="1.5" stroke-linecap="round" stroke-linejoin="round"/>
<path d="M8.3584 8.73359C9.3584 8.45859 10.4167 8.45859 11.4167 8.73359" stroke="#B7B7C3" stroke-width="1.5" stroke-linecap="round" stroke-linejoin="round"/>
</svg>
