<svg width="16" height="16" viewBox="0 0 16 16" fill="none" xmlns="http://www.w3.org/2000/svg">
<path d="M13.3337 5.50065V12.0007C13.3337 14.0007 12.1403 14.6673 10.667 14.6673H5.33366C3.86033 14.6673 2.66699 14.0007 2.66699 12.0007V5.50065C2.66699 3.33398 3.86033 2.83398 5.33366 2.83398C5.33366 3.24732 5.50031 3.62065 5.77364 3.89398C6.04697 4.16732 6.42033 4.33398 6.83366 4.33398H9.16699C9.99366 4.33398 10.667 3.66065 10.667 2.83398C12.1403 2.83398 13.3337 3.33398 13.3337 5.50065Z" stroke="#0E0D35" stroke-width="1.5" stroke-linecap="round" stroke-linejoin="round"/>
<path d="M10.6663 2.83398C10.6663 3.66065 9.99301 4.33398 9.16634 4.33398H6.83301C6.41967 4.33398 6.04632 4.16732 5.77299 3.89398C5.49966 3.62065 5.33301 3.24732 5.33301 2.83398C5.33301 2.00732 6.00634 1.33398 6.83301 1.33398H9.16634C9.57967 1.33398 9.95303 1.50065 10.2264 1.77399C10.4997 2.04732 10.6663 2.42065 10.6663 2.83398Z" stroke="#0E0D35" stroke-width="1.5" stroke-linecap="round" stroke-linejoin="round"/>
<path d="M5.33301 8.66602H7.99967" stroke="#0E0D35" stroke-width="1.5" stroke-linecap="round" stroke-linejoin="round"/>
<path d="M5.33301 11.334H10.6663" stroke="#0E0D35" stroke-width="1.5" stroke-linecap="round" stroke-linejoin="round"/>
</svg>
