<svg width="16" height="16" viewBox="0 0 16 16" fill="none" xmlns="http://www.w3.org/2000/svg">
<path d="M13.3337 5.49967V11.9997C13.3337 13.9997 12.1403 14.6663 10.667 14.6663H5.33366C3.86033 14.6663 2.66699 13.9997 2.66699 11.9997V5.49967C2.66699 3.33301 3.86033 2.83301 5.33366 2.83301C5.33366 3.24634 5.50031 3.61967 5.77364 3.89301C6.04697 4.16634 6.42033 4.33301 6.83366 4.33301H9.16699C9.99366 4.33301 10.667 3.65967 10.667 2.83301C12.1403 2.83301 13.3337 3.33301 13.3337 5.49967Z" stroke="#868599" stroke-linecap="round" stroke-linejoin="round"/>
<path d="M10.6663 2.83301C10.6663 3.65967 9.99301 4.33301 9.16634 4.33301H6.83301C6.41967 4.33301 6.04632 4.16634 5.77299 3.89301C5.49966 3.61967 5.33301 3.24634 5.33301 2.83301C5.33301 2.00634 6.00634 1.33301 6.83301 1.33301H9.16634C9.57967 1.33301 9.95303 1.49968 10.2264 1.77301C10.4997 2.04634 10.6663 2.41967 10.6663 2.83301Z" stroke="#868599" stroke-linecap="round" stroke-linejoin="round"/>
<path d="M5.33301 8.66699H7.99967" stroke="#868599" stroke-linecap="round" stroke-linejoin="round"/>
<path d="M5.33301 11.333H10.6663" stroke="#868599" stroke-linecap="round" stroke-linejoin="round"/>
</svg>
