<svg width="25" height="24" viewBox="0 0 25 24" fill="none" xmlns="http://www.w3.org/2000/svg">
<path fill-rule="evenodd" clip-rule="evenodd" d="M15.5076 6.02393C12.9553 3.45387 8.819 3.45387 6.26665 6.02393C3.71431 8.59398 3.71431 12.759 6.26665 15.329C8.819 17.8991 12.9553 17.8991 15.5076 15.329C18.06 12.759 18.06 8.59398 15.5076 6.02393ZM20.4005 20.2563C19.9747 20.684 19.2852 20.684 18.8594 20.2563L15.4298 16.8018C12.4434 19.05 8.20892 18.8372 5.49593 16.1043C2.51828 13.1071 2.51828 8.24658 5.49593 5.24826C8.47249 2.24993 13.3005 2.24993 16.2771 5.24826C18.9912 7.98009 19.2025 12.244 16.9698 15.2511L20.4005 18.7056C20.8253 19.1333 20.8253 19.8275 20.4005 20.2563Z" fill="#575672"/>
</svg>
