<svg width="16" height="16" viewBox="0 0 16 16" fill="none" xmlns="http://www.w3.org/2000/svg">
<path d="M11.1863 7.04016C12.2099 7.04016 13.0397 6.2104 13.0397 5.18683C13.0397 4.16326 12.2099 3.3335 11.1863 3.3335C10.1628 3.3335 9.33301 4.16326 9.33301 5.18683C9.33301 6.2104 10.1628 7.04016 11.1863 7.04016Z" stroke="#5825EB" stroke-width="1.5" stroke-linecap="round" stroke-linejoin="round"/>
<path d="M5.18634 10.3737C6.20991 10.3737 7.03968 9.54389 7.03968 8.52033C7.03968 7.49676 6.20991 6.66699 5.18634 6.66699C4.16277 6.66699 3.33301 7.49676 3.33301 8.52033C3.33301 9.54389 4.16277 10.3737 5.18634 10.3737Z" stroke="#5825EB" stroke-width="1.5" stroke-linecap="round" stroke-linejoin="round"/>
<path d="M11.1863 13.7067C12.2099 13.7067 13.0397 12.8769 13.0397 11.8533C13.0397 10.8298 12.2099 10 11.1863 10C10.1628 10 9.33301 10.8298 9.33301 11.8533C9.33301 12.8769 10.1628 13.7067 11.1863 13.7067Z" stroke="#5825EB" stroke-width="1.5" stroke-linecap="round" stroke-linejoin="round"/>
<path d="M9.33333 6L7 7.33333" stroke="#5825EB" stroke-width="1.5" stroke-linecap="round" stroke-linejoin="round"/>
<path d="M9.76222 10.5797L7.33282 9.43067" stroke="#5825EB" stroke-width="1.5" stroke-linecap="round" stroke-linejoin="round"/>
</svg>
