<svg width="16" height="17" viewBox="0 0 16 17" fill="none" xmlns="http://www.w3.org/2000/svg">
<path d="M11.1863 7.5387C12.2099 7.5387 13.0397 6.70893 13.0397 5.68536C13.0397 4.6618 12.2099 3.83203 11.1863 3.83203C10.1628 3.83203 9.33301 4.6618 9.33301 5.68536C9.33301 6.70893 10.1628 7.5387 11.1863 7.5387Z" stroke="#0E0D35" stroke-width="1.5" stroke-linecap="round" stroke-linejoin="round"/>
<path d="M5.18634 10.8707C6.20991 10.8707 7.03968 10.041 7.03968 9.0174C7.03968 7.99383 6.20991 7.16406 5.18634 7.16406C4.16277 7.16406 3.33301 7.99383 3.33301 9.0174C3.33301 10.041 4.16277 10.8707 5.18634 10.8707Z" stroke="#0E0D35" stroke-width="1.5" stroke-linecap="round" stroke-linejoin="round"/>
<path d="M11.1863 14.2067C12.2099 14.2067 13.0397 13.3769 13.0397 12.3533C13.0397 11.3298 12.2099 10.5 11.1863 10.5C10.1628 10.5 9.33301 11.3298 9.33301 12.3533C9.33301 13.3769 10.1628 14.2067 11.1863 14.2067Z" stroke="#0E0D35" stroke-width="1.5" stroke-linecap="round" stroke-linejoin="round"/>
<path d="M9.33333 6.5L7 7.83333" stroke="#292D32" stroke-width="1.5" stroke-linecap="round" stroke-linejoin="round"/>
<path d="M9.76222 11.0767L7.33282 9.92774" stroke="#292D32" stroke-width="1.5" stroke-linecap="round" stroke-linejoin="round"/>
</svg>
