<svg width="16" height="16" viewBox="0 0 16 16" fill="none" xmlns="http://www.w3.org/2000/svg">
<path d="M7.99967 11.3333V12.92C7.99967 14.1667 7.49967 14.6667 6.24634 14.6667H3.07967C1.83301 14.6667 1.33301 14.1667 1.33301 12.92V9.75333C1.33301 8.5 1.83301 8 3.07967 8H4.66634V9.58C4.66634 10.8333 5.16634 11.3333 6.41301 11.3333H7.99967Z" stroke="#0E0D35" stroke-width="1.5" stroke-linecap="round" stroke-linejoin="round"/>
<path d="M11.3337 7.99935V9.57935C11.3337 10.8327 10.8337 11.3327 9.58033 11.3327H6.41366C5.16699 11.3327 4.66699 10.8327 4.66699 9.57935V6.41268C4.66699 5.16602 5.16699 4.66602 6.41366 4.66602H8.00033V6.24602C8.00033 7.49935 8.50033 7.99935 9.74699 7.99935H11.3337Z" stroke="#0E0D35" stroke-width="1.5" stroke-linecap="round" stroke-linejoin="round"/>
<path d="M14.6667 3.08065V6.24732C14.6667 7.50065 14.1667 8.00065 12.9133 8.00065H9.74667C8.5 8.00065 8 7.50065 8 6.24732V3.08065C8 1.83398 8.5 1.33398 9.74667 1.33398H12.9133C14.1667 1.33398 14.6667 1.83398 14.6667 3.08065Z" stroke="#0E0D35" stroke-width="1.5" stroke-linecap="round" stroke-linejoin="round"/>
</svg>
