<?xml version="1.0" encoding="utf-8"?>
<!-- Generator: Adobe Illustrator 24.0.1, SVG Export Plug-In . SVG Version: 6.00 Build 0)  -->
<svg version="1.1" id="Layer_1" xmlns="http://www.w3.org/2000/svg" xmlns:xlink="http://www.w3.org/1999/xlink" x="0px" y="0px"
	 viewBox="0 0 170 170" style="enable-background:new 0 0 170 170;" xml:space="preserve">
<style type="text/css">
	.st0{fill:#E82329;}
	.st1{fill:#FFFFFF;}
</style>
<g>
	<path class="st0" d="M79.82,6.97c3.45,0,6.91,0,10.36,0c1.9,0.24,3.81,0.44,5.7,0.72c12.92,1.89,24.75,6.55,35.21,14.36
		c17.15,12.81,27.53,29.82,31,50.99c0.37,2.24,0.61,4.5,0.91,6.75c0,3.45,0,6.91,0,10.36c-0.1,0.44-0.25,0.88-0.29,1.32
		c-0.62,8.47-2.51,16.66-6.09,24.35c-13,27.92-34.8,43.74-65.54,46.85c-11.85,1.2-23.38-0.64-34.45-5.02
		c-33.82-13.39-53.68-47.2-48.94-83.32c1.55-11.84,5.67-22.81,12.43-32.67C33,22.88,50.7,11.55,73.22,7.86
		C75.41,7.5,77.62,7.26,79.82,6.97z M85.06,15.8c-38.12-0.03-69.19,30.97-69.23,69.08c-0.05,38.12,30.95,69.22,69.04,69.27
		c38.14,0.05,69.24-30.91,69.31-69C154.24,46.94,123.23,15.83,85.06,15.8z"/>
	<path class="st0" d="M122.83,123.05c-13.46-7.79-26.92-15.58-40.51-23.45c1.64-1.51,3.18-2.93,4.72-4.35
		c-0.07-0.19-0.14-0.39-0.21-0.58c-3.37,0.35-6.37-0.37-8.77-2.78c-2.38-2.39-3.11-5.34-2.75-8.92c-1.66,1.78-3.09,3.31-4.72,5.06
		c-8.06-13.92-15.87-27.42-23.69-40.91c0.07-0.09,0.13-0.18,0.2-0.28c13.5,7.81,27,15.62,40.83,23.63c-1.72,1.57-3.28,2.99-4.83,4.4
		c0.04,0.12,0.08,0.24,0.12,0.36c3.3-0.3,6.26,0.37,8.65,2.75c2.41,2.39,3.18,5.33,2.83,8.59c1.45-1.51,2.9-3.01,4.62-4.81
		c8.13,14.05,15.95,27.55,23.77,41.06C123.01,122.9,122.92,122.98,122.83,123.05z M86.7,99.17c9.57,5.54,19.25,11.13,28.92,16.72
		c0.09-0.11,0.19-0.22,0.28-0.33c-5.59-9.66-11.18-19.32-16.71-28.89C95.01,90.87,90.9,94.97,86.7,99.17z M84.94,89.38
		c2.49,0.03,4.46-1.9,4.47-4.4c0.01-2.43-1.85-4.36-4.28-4.43c-2.49-0.07-4.49,1.83-4.55,4.32C80.53,87.37,82.45,89.35,84.94,89.38z
		"/>
</g>
</svg>
