<?xml version="1.0" encoding="utf-8"?>
<!-- Generator: Adobe Illustrator 24.0.1, SVG Export Plug-In . SVG Version: 6.00 Build 0)  -->
<svg version="1.1" id="Layer_1" xmlns="http://www.w3.org/2000/svg" xmlns:xlink="http://www.w3.org/1999/xlink" x="0px" y="0px"
	 viewBox="0 0 170 170" style="enable-background:new 0 0 170 170;" xml:space="preserve">
<style type="text/css">
	.st0{fill:#E82329;}
	.st1{fill:#FFFFFF;}
</style>
<g>
	<path class="st0" d="M69.19,163c-0.66-5.08-1.37-10.09-1.92-15.12c-0.12-1.12-0.61-1.47-1.54-1.83c-3.53-1.4-7.04-2.85-10.51-4.38
		c-0.79-0.35-1.26-0.38-1.95,0.17c-4.03,3.18-8.1,6.3-12.04,9.33c-7.48-7.47-14.91-14.89-22.43-22.41
		c2.94-3.81,6.01-7.84,9.16-11.82c0.65-0.82,0.68-1.37,0.24-2.35c-1.55-3.4-2.96-6.88-4.32-10.36c-0.37-0.96-0.78-1.39-1.86-1.51
		c-4.98-0.57-9.95-1.28-15.03-1.95c0-10.49,0-20.94,0-31.57c3.36-0.44,6.75-0.88,10.14-1.32c1.78-0.23,3.58-0.39,5.34-0.7
		c0.45-0.08,1.02-0.54,1.2-0.97c1.64-3.77,3.23-7.56,4.75-11.38c0.17-0.42-0.07-1.19-0.38-1.6c-3.09-4.09-6.23-8.14-9.3-12.11
		c7.46-7.47,14.86-14.88,22.36-22.39c3.62,2.8,7.39,5.6,11.02,8.57c1.42,1.16,2.46,1.44,4.25,0.51c2.93-1.54,6.1-2.61,9.21-3.78
		c1.04-0.39,1.58-0.79,1.71-2.04c0.54-4.98,1.25-9.94,1.91-14.99c10.54,0,20.99,0,31.55,0c0.57,4.41,1.27,8.73,1.63,13.09
		c0.2,2.41,0.88,3.75,3.46,4.45c3.02,0.82,5.87,2.33,8.74,3.68c0.94,0.44,1.51,0.49,2.35-0.19c3.96-3.17,8-6.25,11.91-9.29
		c7.48,7.47,14.89,14.87,22.38,22.35c-3.03,3.94-6.09,7.98-9.23,11.95c-0.7,0.89-0.65,1.51-0.21,2.5c1.5,3.37,2.88,6.79,4.23,10.23
		c0.37,0.94,0.76,1.38,1.87,1.5c5.03,0.55,10.05,1.25,15.13,1.91c0,10.58,0,21.03,0,31.6c-4.25,0.56-8.42,1.31-12.61,1.59
		c-2.8,0.19-4.37,1.02-5.13,3.95c-0.73,2.82-2.18,5.48-3.47,8.14c-0.52,1.06-0.46,1.71,0.28,2.63c3.1,3.88,6.11,7.85,9.06,11.66
		c-7.49,7.46-14.94,14.87-22.47,22.38c-3.74-2.9-7.77-5.99-11.74-9.15c-0.84-0.67-1.4-0.63-2.36-0.21
		c-3.47,1.54-6.99,2.97-10.53,4.33c-0.85,0.33-1.23,0.63-1.34,1.6c-0.59,5.08-1.29,10.15-1.96,15.3C90.21,163,79.75,163,69.19,163z
		 M84.93,38.29c-25.8,0.02-46.66,20.92-46.66,46.75c0,25.79,20.92,46.67,46.74,46.66c25.78-0.01,46.71-20.97,46.69-46.75
		C131.67,59.16,110.73,38.27,84.93,38.29z"/>
	<circle class="st1" cx="85" cy="85" r="56.04"/>
	<path class="st0" d="M70,55.92c0,1.47,0,2.51,0,3.54c0,4.02,0.03,8.04-0.02,12.06c-0.01,1.06,0.26,1.71,1.23,2.28
		c4.29,2.5,8.54,5.07,12.76,7.68c0.83,0.52,1.38,0.39,2.13-0.06c4.24-2.59,8.48-5.17,12.76-7.69c0.83-0.49,1.15-1.02,1.14-2
		c-0.05-5.13-0.02-10.26-0.02-15.71c0.53,0.41,0.89,0.65,1.2,0.94c11.04,10.41,9.36,28.45-3.48,36.69
		c-1.29,0.83-1.69,1.67-1.67,3.16c0.1,8.25,0.05,16.5,0.12,24.76c0.01,1.1-0.27,1.53-1.4,1.79c-6.45,1.53-12.87,1.46-19.33,0.06
		c-1.09-0.24-1.42-0.7-1.41-1.8c0.02-8.41-0.05-16.82-0.04-25.23c0-1.16-0.27-1.85-1.35-2.52c-12.89-7.98-14.92-25.91-4.18-36.53
		C68.83,56.95,69.25,56.59,70,55.92z"/>
</g>
</svg>
