<?xml version="1.0" encoding="utf-8"?>
<!-- Generator: Adobe Illustrator 24.0.1, SVG Export Plug-In . SVG Version: 6.00 Build 0)  -->
<svg version="1.1" id="Layer_1" xmlns="http://www.w3.org/2000/svg" xmlns:xlink="http://www.w3.org/1999/xlink" x="0px" y="0px"
	 viewBox="0 0 170 170" style="enable-background:new 0 0 170 170;" xml:space="preserve">
<style type="text/css">
	.st0{fill:#E82329;}
	.st1{fill:#FFFFFF;}
</style>
<g>
	<g>
		<path class="st0" d="M104.82,61.86c-1.38,3.99-3.66,7.08-6.94,9.76c8.65,3.89,15.19,9.8,18.62,18.68
			c3.41,8.84,3.18,17.7-0.5,26.39c-6.11,14.44-19.72,21.34-33.66,20.2c-15.23-1.25-26.91-11.59-30.17-26.15
			c-3.3-14.75,2.62-31.55,20.04-39.15c-3.13-2.63-5.53-5.7-6.84-9.73C78.58,61.86,91.59,61.86,104.82,61.86z M84.9,78.7
			c-12.67-0.01-24.54,8.75-24.88,25.07c-0.28,13.41,11.32,24.71,24.92,24.73c13.58,0.02,25.2-11.23,24.96-24.68
			C109.6,87.57,97.81,78.66,84.9,78.7z"/>
		<path class="st0" d="M94.38,58c-0.64,0.03-1.11,0.07-1.57,0.07c-9.2,0-18.4-0.01-27.6,0.03c-1.09,0-1.75-0.3-2.36-1.23
			c-4.43-6.67-8.95-13.27-13.36-19.95c-0.53-0.8-0.89-2.03-0.69-2.92c0.28-1.2,1.61-0.98,2.64-0.98c8.17,0,16.35,0.02,24.52-0.02
			c1.14-0.01,1.94,0.34,2.58,1.3c5.15,7.68,10.32,15.35,15.48,23.02C94.14,57.48,94.21,57.67,94.38,58z"/>
		<path class="st0" d="M106.63,33.02c4.11,0,8.23-0.05,12.34,0.04c0.75,0.02,1.84,0.42,2.14,0.98c0.31,0.57,0.08,1.73-0.33,2.35
			c-4.63,6.99-9.32,13.93-14.04,20.86c-0.28,0.4-0.92,0.56-1.4,0.82c-0.08,0.04-0.21,0.01-0.32,0.01c-2-0.03-4.33,0.58-5.9-0.26
			c-1.57-0.83-2.4-3.08-3.52-4.73c-2.58-3.8-5.11-7.64-7.72-11.42c-0.54-0.78-0.62-1.32-0.03-2.12c1.22-1.65,2.34-3.38,3.45-5.11
			c0.64-1,1.44-1.46,2.67-1.44C98.19,33.05,102.41,33.02,106.63,33.02z"/>
		<path class="st0" d="M84.93,124.67c-10.45,0.06-21.03-7.12-21.25-21.48c-0.17-11.43,9.7-20.99,21.23-21.02
			c11.6-0.03,21.56,9.62,21.34,21.08C105.96,117.77,95.2,124.8,84.93,124.67z M81.21,109.8c-1.98-1.99-3.84-3.88-5.71-5.76
			c-0.91-0.92-1.92-1.34-2.96-0.3c-0.98,0.98-0.6,1.95,0.28,2.82c2.3,2.29,4.6,4.59,6.89,6.89c1.05,1.05,2.06,1.02,3.09-0.02
			c4.78-4.79,9.57-9.57,14.35-14.36c0.84-0.84,1.12-1.79,0.24-2.72c-0.93-0.99-1.93-0.76-2.83,0.13c-0.35,0.34-0.69,0.69-1.04,1.03
			C89.47,101.57,85.4,105.62,81.21,109.8z"/>
	</g>
	<path class="st0" d="M79.82,6.97c3.45,0,6.91,0,10.36,0c1.9,0.24,3.81,0.44,5.7,0.72c12.92,1.89,24.75,6.55,35.21,14.36
		c17.15,12.81,27.53,29.82,31,50.99c0.37,2.24,0.61,4.5,0.91,6.75c0,3.45,0,6.91,0,10.36c-0.1,0.44-0.25,0.88-0.29,1.32
		c-0.62,8.47-2.51,16.66-6.09,24.35c-13,27.92-34.8,43.74-65.54,46.85c-11.85,1.2-23.38-0.64-34.45-5.02
		c-33.82-13.39-53.68-47.2-48.94-83.32c1.55-11.84,5.67-22.81,12.43-32.67C33,22.88,50.7,11.55,73.22,7.86
		C75.41,7.5,77.62,7.26,79.82,6.97z M85.06,15.8c-38.12-0.03-69.19,30.97-69.23,69.08c-0.05,38.12,30.95,69.22,69.04,69.27
		c38.14,0.05,69.24-30.91,69.31-69C154.24,46.94,123.23,15.83,85.06,15.8z"/>
</g>
</svg>
