<svg xmlns="http://www.w3.org/2000/svg" xmlns:xlink="http://www.w3.org/1999/xlink" width="500" zoomAndPan="magnify" viewBox="0 0 375 374.999991" height="500" preserveAspectRatio="xMidYMid meet" version="1.0"><defs><clipPath id="efe5c7f867"><path d="M 4.253906 4.253906 L 369.503906 4.253906 L 369.503906 369.503906 L 4.253906 369.503906 Z M 4.253906 4.253906 " clip-rule="nonzero"/></clipPath></defs><g clip-path="url(#efe5c7f867)"><path fill="#1ca9d2" d="M 365.066406 272.441406 C 367.734375 279.570312 369.289062 287.226562 369.523438 295.230469 C 369.582031 295.996094 369.582031 296.757812 369.582031 297.550781 C 369.582031 337.320312 337.320312 369.582031 297.546875 369.582031 C 135.5625 369.582031 4.253906 238.273438 4.253906 76.285156 C 4.253906 36.515625 36.515625 4.253906 76.285156 4.253906 C 77.078125 4.253906 77.839844 4.253906 78.605469 4.3125 C 86.609375 4.546875 94.292969 6.101562 101.421875 8.769531 L 128.464844 125.855469 C 128.464844 125.914062 128.433594 125.941406 128.375 125.972656 L 78.777344 148.261719 L 78.632812 148.320312 C 101.390625 217.625 156.210938 272.441406 225.515625 295.203125 L 225.574219 295.054688 L 247.894531 245.429688 L 365.066406 272.441406 " fill-opacity="1" fill-rule="nonzero"/></g></svg>