<svg xmlns="http://www.w3.org/2000/svg" xmlns:xlink="http://www.w3.org/1999/xlink" width="500" zoomAndPan="magnify" viewBox="0 0 375 374.999991" height="500" preserveAspectRatio="xMidYMid meet" version="1.0"><defs><clipPath id="95ec8d3ffe"><path d="M 13.121094 140 L 364 140 L 364 358 L 13.121094 358 Z M 13.121094 140 " clip-rule="nonzero"/></clipPath><clipPath id="8cae1e919d"><path d="M 13.121094 222 L 364 222 L 364 358 L 13.121094 358 Z M 13.121094 222 " clip-rule="nonzero"/></clipPath><clipPath id="afecdc71de"><path d="M 13.121094 89 L 95 89 L 95 152 L 13.121094 152 Z M 13.121094 89 " clip-rule="nonzero"/></clipPath><clipPath id="12c7cd3bc4"><path d="M 13.121094 140 L 166 140 L 166 255 L 13.121094 255 Z M 13.121094 140 " clip-rule="nonzero"/></clipPath><clipPath id="75c960483e"><path d="M 84 19.222656 L 290 19.222656 L 290 206 L 84 206 Z M 84 19.222656 " clip-rule="nonzero"/></clipPath></defs><g clip-path="url(#95ec8d3ffe)"><path fill="#1ca9d2" d="M 358.246094 357.496094 L 19.269531 357.496094 C 16.34375 357.496094 13.972656 355.121094 13.972656 352.199219 L 13.972656 146.125 C 13.972656 143.199219 16.34375 140.828125 19.269531 140.828125 C 22.191406 140.828125 24.5625 143.199219 24.5625 146.125 L 24.5625 346.902344 L 352.949219 346.902344 L 352.949219 146.125 C 352.949219 143.199219 355.320312 140.828125 358.246094 140.828125 C 361.171875 140.828125 363.542969 143.199219 363.542969 146.125 L 363.542969 352.199219 C 363.542969 355.121094 361.171875 357.496094 358.246094 357.496094 " fill-opacity="1" fill-rule="nonzero"/></g><g clip-path="url(#8cae1e919d)"><path fill="#1ca9d2" d="M 358.234375 357.496094 C 357.152344 357.496094 356.054688 357.167969 355.113281 356.476562 L 188.753906 234.609375 L 22.398438 356.476562 C 20.019531 358.207031 16.722656 357.675781 14.992188 355.332031 C 13.265625 352.972656 13.777344 349.65625 16.136719 347.925781 L 185.621094 223.765625 C 187.484375 222.402344 190.023438 222.402344 191.886719 223.765625 L 361.371094 347.925781 C 363.730469 349.65625 364.242188 352.972656 362.519531 355.332031 C 361.476562 356.746094 359.867188 357.496094 358.234375 357.496094 " fill-opacity="1" fill-rule="nonzero"/></g><path fill="#1ca9d2" d="M 358.234375 151.421875 C 357.152344 151.421875 356.054688 151.09375 355.113281 150.402344 L 282.65625 97.324219 C 280.296875 95.597656 279.789062 92.28125 281.511719 89.921875 C 283.242188 87.570312 286.539062 87.035156 288.917969 88.777344 L 361.371094 141.851562 C 363.730469 143.582031 364.242188 146.898438 362.519531 149.257812 C 361.476562 150.671875 359.867188 151.421875 358.234375 151.421875 " fill-opacity="1" fill-rule="nonzero"/><g clip-path="url(#afecdc71de)"><path fill="#1ca9d2" d="M 19.273438 151.421875 C 17.640625 151.421875 16.035156 150.667969 14.992188 149.257812 C 13.269531 146.898438 13.777344 143.582031 16.136719 141.851562 L 86.46875 90.332031 C 88.832031 88.59375 92.144531 89.128906 93.875 91.476562 C 95.597656 93.835938 95.085938 97.152344 92.730469 98.882812 L 22.398438 150.402344 C 21.453125 151.089844 20.355469 151.421875 19.273438 151.421875 " fill-opacity="1" fill-rule="nonzero"/></g><path fill="#1ca9d2" d="M 217.589844 254.457031 C 215.953125 254.457031 214.347656 253.707031 213.308594 252.292969 C 211.582031 249.933594 212.089844 246.617188 214.453125 244.882812 L 355.113281 141.851562 C 357.480469 140.121094 360.789062 140.636719 362.519531 142.996094 C 364.242188 145.351562 363.730469 148.671875 361.371094 150.402344 L 220.714844 253.4375 C 219.765625 254.125 218.671875 254.457031 217.589844 254.457031 " fill-opacity="1" fill-rule="nonzero"/><g clip-path="url(#12c7cd3bc4)"><path fill="#1ca9d2" d="M 159.921875 254.453125 C 158.839844 254.453125 157.742188 254.125 156.796875 253.4375 L 16.136719 150.402344 C 13.777344 148.671875 13.269531 145.351562 14.992188 142.996094 C 16.722656 140.636719 20.019531 140.121094 22.398438 141.851562 L 163.058594 244.882812 C 165.417969 246.617188 165.929688 249.929688 164.203125 252.292969 C 163.160156 253.703125 161.554688 254.453125 159.921875 254.453125 " fill-opacity="1" fill-rule="nonzero"/></g><g clip-path="url(#75c960483e)"><path fill="#1ca9d2" d="M 283.859375 205.910156 C 280.9375 205.910156 278.5625 203.539062 278.5625 200.613281 L 278.5625 29.816406 L 94.894531 29.816406 L 94.894531 197.132812 C 94.894531 200.054688 92.523438 202.425781 89.597656 202.425781 C 86.675781 202.425781 84.300781 200.054688 84.300781 197.132812 L 84.300781 24.519531 C 84.300781 21.597656 86.675781 19.222656 89.597656 19.222656 L 283.859375 19.222656 C 286.78125 19.222656 289.152344 21.597656 289.152344 24.519531 L 289.152344 200.613281 C 289.152344 203.539062 286.78125 205.910156 283.859375 205.910156 " fill-opacity="1" fill-rule="nonzero"/></g><path fill="#1ca9d2" d="M 189.402344 108.644531 C 180.167969 108.644531 172.652344 116.160156 172.652344 125.394531 C 172.652344 134.628906 180.167969 142.140625 189.402344 142.140625 C 198.640625 142.140625 206.148438 134.628906 206.148438 125.394531 C 206.148438 116.160156 198.640625 108.644531 189.402344 108.644531 Z M 189.402344 152.730469 C 174.328125 152.730469 162.058594 140.46875 162.058594 125.394531 C 162.058594 110.320312 174.328125 98.050781 189.402344 98.050781 C 204.480469 98.050781 216.742188 110.320312 216.742188 125.394531 C 216.742188 140.46875 204.480469 152.730469 189.402344 152.730469 " fill-opacity="1" fill-rule="nonzero"/><path fill="#1ca9d2" d="M 186.726562 190.789062 C 151.382812 190.789062 122.632812 162.035156 122.632812 126.691406 C 122.632812 91.347656 151.382812 62.59375 186.726562 62.59375 C 222.074219 62.59375 250.824219 91.347656 250.824219 126.691406 L 250.824219 131.960938 C 250.824219 144.132812 240.921875 154.035156 228.746094 154.035156 C 216.578125 154.035156 206.671875 144.132812 206.671875 131.960938 L 206.671875 104.652344 C 206.671875 101.726562 209.042969 99.355469 211.96875 99.355469 C 214.894531 99.355469 217.265625 101.726562 217.265625 104.652344 L 217.265625 131.960938 C 217.265625 138.289062 222.417969 143.441406 228.746094 143.441406 C 235.078125 143.441406 240.234375 138.289062 240.234375 131.960938 L 240.234375 126.691406 C 240.234375 97.1875 216.234375 73.1875 186.726562 73.1875 C 157.222656 73.1875 133.226562 97.1875 133.226562 126.691406 C 133.226562 156.195312 157.222656 180.195312 186.726562 180.195312 C 197.273438 180.195312 207.46875 177.132812 216.210938 171.347656 C 218.644531 169.710938 221.941406 170.402344 223.546875 172.835938 C 225.167969 175.277344 224.5 178.558594 222.058594 180.171875 C 211.574219 187.117188 199.355469 190.789062 186.726562 190.789062 " fill-opacity="1" fill-rule="nonzero"/></svg>