<svg xmlns="http://www.w3.org/2000/svg" xmlns:xlink="http://www.w3.org/1999/xlink" width="500" zoomAndPan="magnify" viewBox="0 0 375 374.999991" height="500" preserveAspectRatio="xMidYMid meet" version="1.0"><defs><clipPath id="d8fb868d88"><path d="M 299 206 L 366.792969 206 L 366.792969 351.4375 L 299 351.4375 Z M 299 206 " clip-rule="nonzero"/></clipPath><clipPath id="087bca1609"><path d="M 101 339 L 306 339 L 306 351.4375 L 101 351.4375 Z M 101 339 " clip-rule="nonzero"/></clipPath><clipPath id="21c080e3ba"><path d="M 76 339 L 90 339 L 90 351.4375 L 76 351.4375 Z M 76 339 " clip-rule="nonzero"/></clipPath><clipPath id="1b127a6f0d"><path d="M 9.042969 24.4375 L 221 24.4375 L 221 317 L 9.042969 317 Z M 9.042969 24.4375 " clip-rule="nonzero"/></clipPath></defs><path fill="#1ca9d2" d="M 120.109375 166.324219 C 103.097656 166.324219 89.257812 152.484375 89.257812 135.472656 C 89.257812 118.464844 103.097656 104.621094 120.109375 104.621094 C 137.121094 104.621094 150.960938 118.464844 150.960938 135.472656 C 150.960938 152.484375 137.121094 166.324219 120.109375 166.324219 Z M 120.109375 116.96875 C 109.902344 116.96875 101.597656 125.269531 101.597656 135.480469 C 101.597656 145.6875 109.902344 153.992188 120.109375 153.992188 C 130.320312 153.992188 138.621094 145.6875 138.621094 135.480469 C 138.621094 125.269531 130.320312 116.96875 120.109375 116.96875 Z M 120.109375 116.96875 " fill-opacity="1" fill-rule="nonzero"/><g clip-path="url(#d8fb868d88)"><path fill="#1ca9d2" d="M 366.90625 351.417969 L 299.039062 351.417969 L 299.039062 206.183594 L 366.90625 236.355469 Z M 311.375 339.078125 L 354.566406 339.078125 L 354.566406 244.371094 L 311.375 225.179688 Z M 311.375 339.078125 " fill-opacity="1" fill-rule="nonzero"/></g><path fill="#1ca9d2" d="M 342.226562 229.394531 L 329.886719 229.394531 L 329.886719 135.472656 L 299.039062 135.472656 L 299.039062 123.132812 L 342.226562 123.132812 Z M 342.226562 229.394531 " fill-opacity="1" fill-rule="nonzero"/><path fill="#1ca9d2" d="M 218.828125 345.246094 L 206.488281 345.246094 L 206.488281 123.132812 L 286.699219 123.132812 L 286.699219 135.472656 L 218.828125 135.472656 Z M 218.828125 345.246094 " fill-opacity="1" fill-rule="nonzero"/><g clip-path="url(#087bca1609)"><path fill="#1ca9d2" d="M 101.605469 339.078125 L 305.210938 339.078125 L 305.210938 351.417969 L 101.605469 351.417969 Z M 101.605469 339.078125 " fill-opacity="1" fill-rule="nonzero"/></g><g clip-path="url(#21c080e3ba)"><path fill="#1ca9d2" d="M 76.917969 339.078125 L 89.257812 339.078125 L 89.257812 351.417969 L 76.917969 351.417969 Z M 76.917969 339.078125 " fill-opacity="1" fill-rule="nonzero"/></g><path fill="#1ca9d2" d="M 150.960938 345.246094 L 138.621094 345.246094 L 138.621094 211.59375 L 210.25 181.179688 L 215.070312 192.542969 L 150.960938 219.761719 Z M 150.960938 345.246094 " fill-opacity="1" fill-rule="nonzero"/><path fill="#1ca9d2" d="M 323.714844 129.300781 L 311.375 129.300781 L 311.375 110.796875 L 237.335938 110.796875 L 237.335938 129.300781 L 224.996094 129.300781 L 224.996094 98.457031 L 323.714844 98.457031 Z M 323.714844 129.300781 " fill-opacity="1" fill-rule="nonzero"/><path fill="#1ca9d2" d="M 163.300781 234.1875 L 194.152344 234.1875 L 194.152344 246.527344 L 163.300781 246.527344 Z M 163.300781 234.1875 " fill-opacity="1" fill-rule="nonzero"/><path fill="#1ca9d2" d="M 163.300781 271.210938 L 194.152344 271.210938 L 194.152344 283.550781 L 163.300781 283.550781 Z M 163.300781 271.210938 " fill-opacity="1" fill-rule="nonzero"/><path fill="#1ca9d2" d="M 163.300781 308.226562 L 194.152344 308.226562 L 194.152344 320.566406 L 163.300781 320.566406 Z M 163.300781 308.226562 " fill-opacity="1" fill-rule="nonzero"/><path fill="#1ca9d2" d="M 237.335938 166.324219 L 311.371094 166.324219 L 311.371094 178.664062 L 237.335938 178.664062 Z M 237.335938 166.324219 " fill-opacity="1" fill-rule="nonzero"/><path fill="#1ca9d2" d="M 237.335938 203.34375 L 286.691406 203.34375 L 286.691406 215.679688 L 237.335938 215.679688 Z M 237.335938 203.34375 " fill-opacity="1" fill-rule="nonzero"/><path fill="#1ca9d2" d="M 237.335938 240.359375 L 286.691406 240.359375 L 286.691406 252.699219 L 237.335938 252.699219 Z M 237.335938 240.359375 " fill-opacity="1" fill-rule="nonzero"/><path fill="#1ca9d2" d="M 237.335938 277.378906 L 286.691406 277.378906 L 286.691406 289.714844 L 237.335938 289.714844 Z M 237.335938 277.378906 " fill-opacity="1" fill-rule="nonzero"/><g clip-path="url(#1b127a6f0d)"><path fill="#1ca9d2" d="M 120.101562 316.449219 L 116.027344 312.855469 C 111.660156 309 9.050781 217.523438 9.050781 135.472656 C 9.050781 74.238281 58.875 24.414062 120.109375 24.414062 C 162.925781 24.414062 202.382812 49.453125 220.625 88.207031 L 209.46875 93.464844 C 193.238281 59.019531 158.167969 36.753906 120.109375 36.753906 C 65.675781 36.753906 21.390625 81.042969 21.390625 135.472656 C 21.390625 203.175781 101.011719 281.941406 120.117188 299.859375 C 124.351562 295.902344 131.5625 288.945312 140.300781 279.679688 L 149.28125 288.152344 C 134.796875 303.511719 124.613281 312.488281 124.183594 312.859375 Z M 120.101562 316.449219 " fill-opacity="1" fill-rule="nonzero"/></g></svg>